  0
SECTION
  2
HEADER
  9
$ACADVER
  1
AC1015
  9
$ACADMAINTVER
 70
     6
  9
$DWGCODEPAGE
  3
ANSI_1252
  9
$INSBASE
 10
0.0
 20
0.0
 30
0.0
  9
$EXTMIN
 10
0.0
 20
0.0
 30
0.0
  9
$EXTMAX
 10
297.0
 20
210.0
 30
0.0
  9
$LIMMIN
 10
0.0
 20
0.0
  9
$LIMMAX
 10
297.0
 20
210.0
  9
$ORTHOMODE
 70
     0
  9
$REGENMODE
 70
     1
  9
$FILLMODE
 70
     1
  9
$QTEXTMODE
 70
     0
  9
$MIRRTEXT
 70
     1
  9
$LTSCALE
 40
1.0
  9
$ATTMODE
 70
     1
  9
$TEXTSIZE
 40
3.5
  9
$TRACEWID
 40
1.0
  9
$TEXTSTYLE
  7
Standard
  9
$CLAYER
  8
0
  9
$CELTYPE
  6
ByLayer
  9
$CECOLOR
 62
   256
  9
$CELTSCALE
 40
1.0
  9
$DISPSILH
 70
     0
  9
$DIMSCALE
 40
1.0
  9
$DIMASZ
 40
3.302
  9
$DIMEXO
 40
1.0
  9
$DIMDLI
 40
3.75
  9
$DIMRND
 40
0.0
  9
$DIMDLE
 40
0.0
  9
$DIMEXE
 40
1.0
  9
$DIMTP
 40
0.0
  9
$DIMTM
 40
0.0
  9
$DIMTXT
 40
3.5
  9
$DIMCEN
 40
2.5
  9
$DIMTSZ
 40
0.0
  9
$DIMTOL
 70
     0
  9
$DIMLIM
 70
     0
  9
$DIMTIH
 70
     1
  9
$DIMTOH
 70
     1
  9
$DIMSE1
 70
     0
  9
$DIMSE2
 70
     0
  9
$DIMTAD
 70
     1
  9
$DIMZIN
 70
     0
  9
$DIMBLK
  1

  9
$DIMASO
 70
     1
  9
$DIMSHO
 70
     1
  9
$DIMPOST
  1

  9
$DIMAPOST
  1

  9
$DIMALT
 70
     0
  9
$DIMALTD
 70
     3
  9
$DIMALTF
 40
0.0393700787
  9
$DIMLFAC
 40
1.0
  9
$DIMTOFL
 70
     1
  9
$DIMTVP
 40
0.0
  9
$DIMTIX
 70
     0
  9
$DIMSOXD
 70
     0
  9
$DIMSAH
 70
     0
  9
$DIMBLK1
  1

  9
$DIMBLK2
  1

  9
$DIMSTYLE
  2
ISO-25
  9
$DIMCLRD
 70
     0
  9
$DIMCLRE
 70
     0
  9
$DIMCLRT
 70
     0
  9
$DIMTFAC
 40
1.0
  9
$DIMGAP
 40
1.524
  9
$DIMJUST
 70
     0
  9
$DIMSD1
 70
     0
  9
$DIMSD2
 70
     0
  9
$DIMTOLJ
 70
     0
  9
$DIMTZIN
 70
     0
  9
$DIMALTZ
 70
     0
  9
$DIMALTTZ
 70
     0
  9
$DIMUPT
 70
     0
  9
$DIMDEC
 70
     2
  9
$DIMTDEC
 70
     2
  9
$DIMALTU
 70
     2
  9
$DIMALTTD
 70
     3
  9
$DIMTXSTY
  7
Standard
  9
$DIMAUNIT
 70
     0
  9
$DIMADEC
 70
     2
  9
$DIMALTRND
 40
0.0
  9
$DIMAZIN
 70
     0
  9
$DIMDSEP
 70
    44
  9
$DIMATFIT
 70
     3
  9
$DIMFRAC
 70
     0
  9
$DIMLDRBLK
  1

  9
$DIMLUNIT
 70
     2
  9
$DIMLWD
 70
    -2
  9
$DIMLWE
 70
    -2
  9
$DIMTMOVE
 70
     0
  9
$LUNITS
 70
     2
  9
$LUPREC
 70
     2
  9
$SKETCHINC
 40
1.0
  9
$FILLETRAD
 40
10.0
  9
$AUNITS
 70
     0
  9
$AUPREC
 70
     2
  9
$MENU
  1
.
  9
$ELEVATION
 40
0.0
  9
$PELEVATION
 40
0.0
  9
$THICKNESS
 40
0.0
  9
$LIMCHECK
 70
     0
  9
$CHAMFERA
 40
10.0
  9
$CHAMFERB
 40
10.0
  9
$CHAMFERC
 40
20.0
  9
$CHAMFERD
 40
0.0
  9
$SKPOLY
 70
     0
  9
$TDCREATE
 40
2455595.394518761
  9
$TDUCREATE
 40
2455595.602852095
  9
$TDUPDATE
 40
2455595.394518773
  9
$TDUUPDATE
 40
2455595.602852107
  9
$TDINDWG
 40
0.0000000116
  9
$TDUSRTIMER
 40
0.0000000116
  9
$USRTIMER
 70
     1
  9
$ANGBASE
 50
0.0
  9
$ANGDIR
 70
     0
  9
$PDMODE
 70
     0
  9
$PDSIZE
 40
-1.0
  9
$PLINEWID
 40
0.0
  9
$SPLFRAME
 70
     0
  9
$SPLINETYPE
 70
     6
  9
$SPLINESEGS
 70
     8
  9
$HANDSEED
  5
148
  9
$SURFTAB1
 70
     6
  9
$SURFTAB2
 70
     6
  9
$SURFTYPE
 70
     6
  9
$SURFU
 70
     6
  9
$SURFV
 70
     6
  9
$UCSBASE
  2

  9
$UCSNAME
  2

  9
$UCSORG
 10
0.0
 20
0.0
 30
0.0
  9
$UCSXDIR
 10
1.0
 20
0.0
 30
0.0
  9
$UCSYDIR
 10
0.0
 20
1.0
 30
0.0
  9
$UCSORTHOREF
  2

  9
$UCSORTHOVIEW
 70
     0
  9
$UCSORGTOP
 10
0.0
 20
0.0
 30
0.0
  9
$UCSORGBOTTOM
 10
0.0
 20
0.0
 30
0.0
  9
$UCSORGLEFT
 10
0.0
 20
0.0
 30
0.0
  9
$UCSORGRIGHT
 10
0.0
 20
0.0
 30
0.0
  9
$UCSORGFRONT
 10
0.0
 20
0.0
 30
0.0
  9
$UCSORGBACK
 10
0.0
 20
0.0
 30
0.0
  9
$PUCSBASE
  2

  9
$PUCSNAME
  2

  9
$PUCSORG
 10
0.0
 20
0.0
 30
0.0
  9
$PUCSXDIR
 10
1.0
 20
0.0
 30
0.0
  9
$PUCSYDIR
 10
0.0
 20
1.0
 30
0.0
  9
$PUCSORTHOREF
  2

  9
$PUCSORTHOVIEW
 70
     0
  9
$PUCSORGTOP
 10
0.0
 20
0.0
 30
0.0
  9
$PUCSORGBOTTOM
 10
0.0
 20
0.0
 30
0.0
  9
$PUCSORGLEFT
 10
0.0
 20
0.0
 30
0.0
  9
$PUCSORGRIGHT
 10
0.0
 20
0.0
 30
0.0
  9
$PUCSORGFRONT
 10
0.0
 20
0.0
 30
0.0
  9
$PUCSORGBACK
 10
0.0
 20
0.0
 30
0.0
  9
$USERI1
 70
     0
  9
$USERI2
 70
     0
  9
$USERI3
 70
     0
  9
$USERI4
 70
     0
  9
$USERI5
 70
     0
  9
$USERR1
 40
0.0
  9
$USERR2
 40
0.0
  9
$USERR3
 40
0.0
  9
$USERR4
 40
0.0
  9
$USERR5
 40
0.0
  9
$WORLDVIEW
 70
     1
  9
$SHADEDGE
 70
     3
  9
$SHADEDIF
 70
    70
  9
$TILEMODE
 70
     1
  9
$MAXACTVP
 70
    64
  9
$PINSBASE
 10
0.0
 20
0.0
 30
0.0
  9
$PLIMCHECK
 70
     0
  9
$PEXTMIN
 10
1.0000000000E+20
 20
1.0000000000E+20
 30
1.0000000000E+20
  9
$PEXTMAX
 10
-1.0000000000E+20
 20
-1.0000000000E+20
 30
-1.0000000000E+20
  9
$PLIMMIN
 10
0.0
 20
0.0
  9
$PLIMMAX
 10
420.0
 20
297.0
  9
$UNITMODE
 70
     0
  9
$VISRETAIN
 70
     1
  9
$PLINEGEN
 70
     0
  9
$PSLTSCALE
 70
     1
  9
$TREEDEPTH
 70
  3020
  9
$CMLSTYLE
  2
Standard
  9
$CMLJUST
 70
     0
  9
$CMLSCALE
 40
20.0
  9
$PROXYGRAPHICS
 70
     1
  9
$MEASUREMENT
 70
     1
  9
$CELWEIGHT
370
    -1
  9
$ENDCAPS
280
     0
  9
$JOINSTYLE
280
     0
  9
$LWDISPLAY
290
     1
  9
$INSUNITS
 70
     4
  9
$HYPERLINKBASE
  1

  9
$STYLESHEET
  1

  9
$XEDIT
290
     1
  9
$CEPSNTYPE
380
     0
  9
$PSTYLEMODE
290
     1
  9
$FINGERPRINTGUID
  2
{7E979AFF-0DA0-467E-AE3D-D525731D55A2}
  9
$VERSIONGUID
  2
{FAEB1C32-E019-11D5-929B-00C0DF256EC4}
  9
$EXTNAMES
290
     1
  9
$PSVPSCALE
 40
0.0
  9
$OLESTARTUP
290
     0
  0
ENDSEC
  0
SECTION
  2
CLASSES
  0
CLASS
  1
ACDBDICTIONARYWDFLT
  2
AcDbDictionaryWithDefault
  3
ObjectDBX Classes
 90
        0
280
     0
281
     0
  0
CLASS
  1
VISUALSTYLE
  2
AcDbVisualStyle
  3
ObjectDBX Classes
 90
     4095
280
     0
281
     0
  0
CLASS
  1
MATERIAL
  2
AcDbMaterial
  3
ObjectDBX Classes
 90
     1153
280
     0
281
     0
  0
CLASS
  1
ACDBPLACEHOLDER
  2
AcDbPlaceHolder
  3
ObjectDBX Classes
 90
        0
280
     0
281
     0
  0
CLASS
  1
LAYOUT
  2
AcDbLayout
  3
ObjectDBX Classes
 90
        0
280
     0
281
     0
  0
ENDSEC
  0
SECTION
  2
TABLES
  0
TABLE
  2
VPORT
  5
8
330
0
100
AcDbSymbolTable
 70
     1
  0
VPORT
  5
29
330
8
100
AcDbSymbolTableRecord
100
AcDbViewportTableRecord
  2
*Active
 70
     0
 10
0.0
 20
0.0
 11
1.0
 21
1.0
 12
148.5
 22
105.0
 13
0.0
 23
0.0
 14
10.0
 24
10.0
 15
10.0
 25
10.0
 16
0.0
 26
0.0
 36
1.0
 17
0.0
 27
0.0
 37
0.0
 40
210.0
 41
1.4142857143
 42
50.0
 43
0.0
 44
0.0
 50
0.0
 51
0.0
 71
     0
 72
  2000
 73
     1
 74
     3
 75
     0
 76
     0
 77
     0
 78
     0
281
     0
 65
     1
110
0.0
120
0.0
130
0.0
111
1.0
121
0.0
131
0.0
112
0.0
122
1.0
132
0.0
 79
     0
146
0.0
  0
ENDTAB
  0
TABLE
  2
LTYPE
  5
5
330
0
100
AcDbSymbolTable
 70
     6
  0
LTYPE
  5
14
330
5
100
AcDbSymbolTableRecord
100
AcDbLinetypeTableRecord
  2
ByBlock
 70
     0
  3

 72
    65
 73
     0
 40
0.0
  0
LTYPE
  5
15
330
5
100
AcDbSymbolTableRecord
100
AcDbLinetypeTableRecord
  2
ByLayer
 70
     0
  3

 72
    65
 73
     0
 40
0.0
  0
LTYPE
  5
16
330
5
100
AcDbSymbolTableRecord
100
AcDbLinetypeTableRecord
  2
Continuous
 70
     0
  3
Solid line
 72
    65
 73
     0
 40
0.0
  0
LTYPE
  5
3F
330
5
100
AcDbSymbolTableRecord
100
AcDbLinetypeTableRecord
  2
HIDDEN
 70
     0
  3
Hidden __ __ __ __ __ __ __ __ __ __ __ __ __ __
 72
    65
 73
     2
 40
1.905
 49
1.27
 74
     0
 49
-0.635
 74
     0
  0
LTYPE
  5
40
330
5
100
AcDbSymbolTableRecord
100
AcDbLinetypeTableRecord
  2
PHANTOM
 70
     0
  3
Phantom ______  __  __  ______  __  __  ______
 72
    65
 73
     6
 40
12.7
 49
6.35
 74
     0
 49
-1.27
 74
     0
 49
1.27
 74
     0
 49
-1.27
 74
     0
 49
1.27
 74
     0
 49
-1.27
 74
     0
  0
LTYPE
  5
41
330
5
100
AcDbSymbolTableRecord
100
AcDbLinetypeTableRecord
  2
CENTER
 70
     0
  3
Center ____ _ ____ _ ____ _ ____ _ ____ _ ____
 72
    65
 73
     4
 40
10.16
 49
6.35
 74
     0
 49
-1.27
 74
     0
 49
1.27
 74
     0
 49
-1.27
 74
     0
  0
LTYPE
  5
42
330
5
100
AcDbSymbolTableRecord
100
AcDbLinetypeTableRecord
  2
CENTERX2
 70
     0
  3
Center (2x) ________  __  ________  __  _____
 72
    65
 73
     4
 40
20.32
 49
12.7
 74
     0
 49
-2.54
 74
     0
 49
2.54
 74
     0
 49
-2.54
 74
     0
  0
LTYPE
  5
43
330
5
100
AcDbSymbolTableRecord
100
AcDbLinetypeTableRecord
  2
DOT2
 70
     0
  3
Dot (.5x) ........................................
 72
    65
 73
     2
 40
0.635
 49
0.0
 74
     0
 49
-0.635
 74
     0
  0
ENDTAB
  0
TABLE
  2
LAYER
  5
2
330
0
100
AcDbSymbolTable
 70
     1
  0
LAYER
  5
10
330
2
100
AcDbSymbolTableRecord
100
AcDbLayerTableRecord
  2
0
 70
     0
 62
     7
  6
Continuous
370
    -3
390
F
  0
ENDTAB
  0
TABLE
  2
STYLE
  5
3
330
0
100
AcDbSymbolTable
 70
     1
  0
STYLE
  5
11
330
3
100
AcDbSymbolTableRecord
100
AcDbTextStyleTableRecord
  2
Standard
 70
     0
 40
0.0
 41
1.0
 50
0.0
 71
     0
 42
2.5
  3
txt
  4

  0
ENDTAB
  0
TABLE
  2
VIEW
  5
6
330
0
100
AcDbSymbolTable
 70
     0
  0
ENDTAB
  0
TABLE
  2
UCS
  5
7
330
0
100
AcDbSymbolTable
 70
     0
  0
ENDTAB
  0
TABLE
  2
APPID
  5
9
330
0
100
AcDbSymbolTable
 70
     1
  0
APPID
  5
12
330
9
100
AcDbSymbolTableRecord
100
AcDbRegAppTableRecord
  2
ACAD
 70
     0
  0
ENDTAB
  0
TABLE
  2
DIMSTYLE
  5
A
330
0
100
AcDbSymbolTable
 70
     1
100
AcDbDimStyleTable
  0
DIMSTYLE
105
27
330
A
100
AcDbSymbolTableRecord
100
AcDbDimStyleTableRecord
  2
ISO-25
 70
     0
 41
2.5
 42
0.625
 43
3.75
 44
1.25
 73
     0
 74
     0
 77
     1
 78
     8
140
2.5
141
2.5
143
0.0393700787
147
0.625
171
     3
172
     1
178
     0
271
     2
272
     2
274
     3
278
    44
283
     0
284
     8
340
11
  0
ENDTAB
  0
TABLE
  2
BLOCK_RECORD
  5
1
330
0
100
AcDbSymbolTable
 70
     2
  0
BLOCK_RECORD
  5
1F
330
1
100
AcDbSymbolTableRecord
100
AcDbBlockTableRecord
  2
*Model_Space
340
22
  0
BLOCK_RECORD
  5
1B
330
1
100
AcDbSymbolTableRecord
100
AcDbBlockTableRecord
  2
*Paper_Space
340
1E
  0
BLOCK_RECORD
  5
23
330
1
100
AcDbSymbolTableRecord
100
AcDbBlockTableRecord
  2
*Paper_Space0
340
26
  0
BLOCK_RECORD
  5
DB
330
1
100
AcDbSymbolTableRecord
100
AcDbBlockTableRecord
  2
SW_CENTERMARKSYMBOL_0
340
0
102
{BLKREFS
331
E6
102
}
  0
ENDTAB
  0
ENDSEC
  0
SECTION
  2
BLOCKS
  0
BLOCK
  5
20
330
1F
100
AcDbEntity
  8
0
100
AcDbBlockBegin
  2
*Model_Space
 70
     0
 10
0.0
 20
0.0
 30
0.0
  3
*Model_Space
  1

  0
ENDBLK
  5
21
330
1F
100
AcDbEntity
  8
0
100
AcDbBlockEnd
  0
BLOCK
  5
1C
330
1B
100
AcDbEntity
 67
     1
  8
0
100
AcDbBlockBegin
  2
*Paper_Space
 70
     0
 10
0.0
 20
0.0
 30
0.0
  3
*Paper_Space
  1

  0
ENDBLK
  5
1D
330
1B
100
AcDbEntity
 67
     1
  8
0
100
AcDbBlockEnd
  0
BLOCK
  5
24
330
23
100
AcDbEntity
  8
0
100
AcDbBlockBegin
  2
*Paper_Space0
 70
     0
 10
0.0
 20
0.0
 30
0.0
  3
*Paper_Space0
  1

  0
ENDBLK
  5
25
330
23
100
AcDbEntity
  8
0
100
AcDbBlockEnd
  0
BLOCK
  5
DC
330
DB
100
AcDbEntity
  8
0
100
AcDbBlockBegin
  2
SW_CENTERMARKSYMBOL_0
 70
     0
 10
0.0
 20
0.0
 30
0.0
  3
SW_CENTERMARKSYMBOL_0
  1

  0
LINE
  5
DE
330
DB
100
AcDbEntity
  8
0
  6
Continuous
 62
     0
370
     0
100
AcDbLine
 10
0.0
 20
0.0
 30
0.0
 11
0.0
 21
2.5
 31
0.0
  0
LINE
  5
DF
330
DB
100
AcDbEntity
  8
0
  6
Continuous
 62
     0
370
     0
100
AcDbLine
 10
0.0
 20
0.0
 30
0.0
 11
-2.5
 21
0.0
 31
0.0
  0
LINE
  5
E0
330
DB
100
AcDbEntity
  8
0
  6
Continuous
 62
     0
370
     0
100
AcDbLine
 10
0.0
 20
0.0
 30
0.0
 11
0.0
 21
-2.5
 31
0.0
  0
LINE
  5
E1
330
DB
100
AcDbEntity
  8
0
  6
Continuous
 62
     0
370
     0
100
AcDbLine
 10
0.0
 20
0.0
 30
0.0
 11
2.5
 21
0.0
 31
0.0
  0
LINE
  5
E2
330
DB
100
AcDbEntity
  8
0
  6
Continuous
 62
     0
370
     0
100
AcDbLine
 10
0.0
 20
5.0
 30
0.0
 11
0.0
 21
5.35
 31
0.0
  0
LINE
  5
E3
330
DB
100
AcDbEntity
  8
0
  6
Continuous
 62
     0
370
     0
100
AcDbLine
 10
-5.0
 20
0.0
 30
0.0
 11
-5.35
 21
0.0
 31
0.0
  0
LINE
  5
E4
330
DB
100
AcDbEntity
  8
0
  6
Continuous
 62
     0
370
     0
100
AcDbLine
 10
0.0
 20
-5.0
 30
0.0
 11
0.0
 21
-5.35
 31
0.0
  0
LINE
  5
E5
330
DB
100
AcDbEntity
  8
0
  6
Continuous
 62
     0
370
     0
100
AcDbLine
 10
5.0
 20
0.0
 30
0.0
 11
5.35
 21
0.0
 31
0.0
  0
ENDBLK
  5
DD
330
DB
100
AcDbEntity
  8
0
100
AcDbBlockEnd
  0
ENDSEC
  0
SECTION
  2
ENTITIES
  0
ARC
  5
44
330
1F
100
AcDbEntity
  8
0
  6
Continuous
 62
     7
370
     0
100
AcDbCircle
 10
135.4585577234
 20
89.3465882457
 30
0.0
 40
0.0999999999999943
100
AcDbArc
 50
0.0
 51
90.0
  0
ARC
  5
45
330
1F
100
AcDbEntity
  8
0
  6
Continuous
 62
     7
370
     0
100
AcDbCircle
 10
135.4585577234
 20
89.3465882457
 30
0.0
 40
0.0999999999999943
100
AcDbArc
 50
270.0
 51
0.0
  0
LINE
  5
46
330
1F
100
AcDbEntity
  8
0
  6
Continuous
 62
     7
370
     0
100
AcDbLine
 10
135.2050043328
 20
87.9465882457
 30
0.0
 11
135.2050043328
 21
89.2465882457
 31
0.0
  0
ARC
  5
47
330
1F
100
AcDbEntity
  8
0
  6
Continuous
 62
     7
370
     0
100
AcDbCircle
 10
129.664344161
 20
89.3465882457
 30
0.0
 40
0.1000000000000024
100
AcDbArc
 50
91.6579236272
 51
268.3420763728
  0
LINE
  5
48
330
1F
100
AcDbEntity
  8
0
  6
Continuous
 62
     7
370
     0
100
AcDbLine
 10
135.4585577234
 20
89.4465882457
 30
0.0
 11
134.8928722984
 21
89.4465882457
 31
0.0
  0
LINE
  5
49
330
1F
100
AcDbEntity
  8
0
  6
Continuous
 62
     7
370
     0
100
AcDbLine
 10
134.8928722984
 20
89.2465882457
 30
0.0
 11
135.4585577234
 21
89.2465882457
 31
0.0
  0
LINE
  5
4A
330
1F
100
AcDbEntity
  8
0
  6
Continuous
 62
     7
370
     0
100
AcDbLine
 10
134.6100295859
 20
89.2465882457
 30
0.0
 11
134.8928722984
 21
89.2465882457
 31
0.0
  0
ELLIPSE
  5
4B
330
1F
100
AcDbEntity
  8
0
  6
Continuous
 62
     7
370
     0
100
AcDbEllipse
 10
134.5393189078
 20
89.3465882457
 30
0.0
 11
0.09238795325111937
 21
-0.09238795325113358
 31
0.0
210
0.0
220
0.0
230
0.9999999999999998
 40
0.4142135624
 41
4.319689898686079
 42
5.89048622548091
  0
ARC
  5
4C
330
1F
100
AcDbEntity
  8
0
  6
Continuous
 62
     7
370
     0
100
AcDbCircle
 10
134.4862858992
 20
89.3590882457
 30
0.0
 40
0.089267855356852
100
AcDbArc
 50
101.421753659
 51
188.0494669755
  0
LINE
  5
4D
330
1F
100
AcDbEntity
  8
0
  6
Continuous
 62
     7
370
     0
100
AcDbLine
 10
134.8928722984
 20
89.4465882457
 30
0.0
 11
134.4686082297
 21
89.4465882457
 31
0.0
  0
LINE
  5
4E
330
1F
100
AcDbEntity
  8
0
  6
Continuous
 62
     7
370
     0
100
AcDbLine
 10
134.3978975516
 20
89.3465882457
 30
0.0
 11
134.3978975516
 21
88.1465882457
 31
0.0
  0
LINE
  5
4F
330
1F
100
AcDbEntity
  8
0
  6
Continuous
 62
     7
370
     0
100
AcDbLine
 10
134.0414509422
 20
88.1465882457
 30
0.0
 11
134.0414509422
 21
91.1465882457
 31
0.0
  0
LINE
  5
50
330
1F
100
AcDbEntity
  8
0
  6
Continuous
 62
     7
370
     0
100
AcDbLine
 10
134.0414509422
 20
91.1465882457
 30
0.0
 11
135.4614509422
 21
91.1465882457
 31
0.0
  0
LINE
  5
51
330
1F
100
AcDbEntity
  8
0
  6
Continuous
 62
     7
370
     0
100
AcDbLine
 10
135.4614509422
 20
91.1465882457
 30
0.0
 11
135.4614509422
 21
89.4465463834
 31
0.0
  0
LINE
  5
52
330
1F
100
AcDbEntity
  8
0
  6
Continuous
 62
     7
370
     0
100
AcDbLine
 10
135.4614509422
 20
89.2466301081
 30
0.0
 11
135.4614509422
 21
88.1465882457
 31
0.0
  0
LINE
  5
53
330
1F
100
AcDbEntity
  8
0
  6
Continuous
 62
     7
370
     0
100
AcDbLine
 10
134.0414509422
 20
88.1465882457
 30
0.0
 11
134.3978975516
 21
88.1465882457
 31
0.0
  0
LINE
  5
54
330
1F
100
AcDbEntity
  8
0
  6
Continuous
 62
     7
370
     0
100
AcDbLine
 10
135.2050043328
 20
88.1465882457
 30
0.0
 11
135.4614509422
 21
88.1465882457
 31
0.0
  0
LINE
  5
55
330
1F
100
AcDbEntity
  8
0
  6
Continuous
 62
     7
370
     0
100
AcDbLine
 10
130.1614509422
 20
91.1465882457
 30
0.0
 11
134.0414509422
 21
91.1465882457
 31
0.0
  0
LINE
  5
56
330
1F
100
AcDbEntity
  8
0
  6
Continuous
 62
     7
370
     0
100
AcDbLine
 10
134.0414509422
 20
88.1465882457
 30
0.0
 11
130.1614509422
 21
88.1465882457
 31
0.0
  0
LINE
  5
57
330
1F
100
AcDbEntity
  8
0
  6
Continuous
 62
     7
370
     0
100
AcDbLine
 10
129.6614509422
 20
91.1465882457
 30
0.0
 11
129.6614509422
 21
88.1465882457
 31
0.0
  0
LINE
  5
58
330
1F
100
AcDbEntity
  8
0
  6
Continuous
 62
     7
370
     0
100
AcDbLine
 10
130.1614509422
 20
91.1465882457
 30
0.0
 11
129.6614509422
 21
91.1465882457
 31
0.0
  0
LINE
  5
59
330
1F
100
AcDbEntity
  8
0
  6
Continuous
 62
     7
370
     0
100
AcDbLine
 10
129.6614509422
 20
88.1465882457
 30
0.0
 11
130.1614509422
 21
88.1465882457
 31
0.0
  0
LINE
  5
5A
330
1F
100
AcDbEntity
  8
0
  6
Continuous
 62
     7
370
     0
100
AcDbLine
 10
133.9614509422
 20
87.9465882457
 30
0.0
 11
133.9614509422
 21
88.1465882457
 31
0.0
  0
LINE
  5
5B
330
1F
100
AcDbEntity
  8
0
  6
Continuous
 62
     7
370
     0
100
AcDbLine
 10
134.3078975516
 20
87.9465882457
 30
0.0
 11
134.3078975516
 21
88.1465882457
 31
0.0
  0
LINE
  5
5C
330
1F
100
AcDbEntity
  8
0
  6
Continuous
 62
     7
370
     0
100
AcDbLine
 10
134.3078975516
 20
87.9465882457
 30
0.0
 11
133.9614509422
 21
87.9465882457
 31
0.0
  0
LINE
  5
5D
330
1F
100
AcDbEntity
  8
0
  6
Continuous
 62
     7
370
     0
100
AcDbLine
 10
131.1614509422
 20
88.1465882457
 30
0.0
 11
131.1614509422
 21
87.9465882457
 31
0.0
  0
LINE
  5
5E
330
1F
100
AcDbEntity
  8
0
  6
Continuous
 62
     7
370
     0
100
AcDbLine
 10
133.9614509422
 20
87.9465882457
 30
0.0
 11
131.1614509422
 21
87.9465882457
 31
0.0
  0
LINE
  5
5F
330
1F
100
AcDbEntity
  8
0
  6
Continuous
 62
     7
370
     0
100
AcDbLine
 10
129.7614509422
 20
88.1465882457
 30
0.0
 11
129.7614509422
 21
87.9465882457
 31
0.0
  0
LINE
  5
60
330
1F
100
AcDbEntity
  8
0
  6
Continuous
 62
     7
370
     0
100
AcDbLine
 10
131.1614509422
 20
87.9465882457
 30
0.0
 11
129.7614509422
 21
87.9465882457
 31
0.0
  0
LINE
  5
61
330
1F
100
AcDbEntity
  8
0
  6
Continuous
 62
     7
370
     0
100
AcDbLine
 10
134.6100295859
 20
87.9465882457
 30
0.0
 11
134.4686082297
 21
87.9465882457
 31
0.0
  0
LINE
  5
62
330
1F
100
AcDbEntity
  8
0
  6
Continuous
 62
     7
370
     0
100
AcDbLine
 10
134.4686082297
 20
87.9465882457
 30
0.0
 11
134.3078975516
 21
87.9465882457
 31
0.0
  0
LINE
  5
63
330
1F
100
AcDbEntity
  8
0
  6
Continuous
 62
     7
370
     0
100
AcDbLine
 10
135.1757150109
 20
87.9465882457
 30
0.0
 11
134.6100295859
 21
87.9465882457
 31
0.0
  0
LINE
  5
64
330
1F
100
AcDbEntity
  8
0
  6
Continuous
 62
     7
370
     0
100
AcDbLine
 10
135.2050043328
 20
87.9465882457
 30
0.0
 11
135.1757150109
 21
87.9465882457
 31
0.0
  0
LINE
  5
65
330
1F
100
AcDbEntity
  8
0
  6
Continuous
 62
     7
370
     0
100
AcDbLine
 10
135.3614509422
 20
88.1465882457
 30
0.0
 11
135.3614509422
 21
87.9465882457
 31
0.0
  0
LINE
  5
66
330
1F
100
AcDbEntity
  8
0
  6
Continuous
 62
     7
370
     0
100
AcDbLine
 10
135.3614509422
 20
87.9465882457
 30
0.0
 11
135.2050043328
 21
87.9465882457
 31
0.0
  0
LWPOLYLINE
  5
67
330
1F
100
AcDbEntity
  8
0
  6
PHANTOM
 62
     8
370
     0
100
AcDbPolyline
 90
       11
 70
   128
 43
0.0
 10
134.8928722984
 20
89.4465882457
 10
134.9147230996
 20
89.4416938974
 10
134.9344349922
 20
89.4274899452
 10
134.9500784387
 20
89.405366771
 10
134.9601221496
 20
89.3774899452
 10
134.9635829765
 20
89.3465882457
 10
134.9601221496
 20
89.3156865463
 10
134.9500784387
 20
89.2878097205
 10
134.9344349922
 20
89.2656865463
 10
134.9147230996
 20
89.2514825941
 10
134.8928722984
 20
89.2465882457
  0
LWPOLYLINE
  5
68
330
1F
100
AcDbEntity
  8
0
  6
PHANTOM
 62
     8
370
     0
100
AcDbPolyline
 90
       11
 70
   128
 43
0.0
 10
134.8928722984
 20
89.2465882457
 10
134.8710214972
 20
89.2514825941
 10
134.8513096046
 20
89.2656865463
 10
134.8356661581
 20
89.2878097205
 10
134.8256224472
 20
89.3156865463
 10
134.8221616203
 20
89.3465882457
 10
134.8256224472
 20
89.3774899452
 10
134.8356661581
 20
89.405366771
 10
134.8513096046
 20
89.4274899452
 10
134.8710214972
 20
89.4416938974
 10
134.8928722984
 20
89.4465882457
  0
LWPOLYLINE
  5
69
330
1F
100
AcDbEntity
  8
0
  6
PHANTOM
 62
     8
370
     0
100
AcDbPolyline
 90
       11
 70
   128
 43
0.0
 10
135.4585577234
 20
89.2465882457
 10
135.4804085246
 20
89.2514825941
 10
135.5001204171
 20
89.2656865463
 10
135.5157638636
 20
89.2878097205
 10
135.5258075745
 20
89.3156865463
 10
135.5292684015
 20
89.3465882457
 10
135.5258075745
 20
89.3774899452
 10
135.5157638636
 20
89.405366771
 10
135.5001204171
 20
89.4274899452
 10
135.4804085246
 20
89.4416938974
 10
135.4585577234
 20
89.4465882457
  0
LINE
  5
6A
330
1F
100
AcDbEntity
  8
0
  6
PHANTOM
 62
     8
370
     0
100
AcDbLine
 10
134.3978975516
 20
89.3465882457
 30
0.0
 11
134.4686082297
 21
89.3465882457
 31
0.0
  0
LINE
  5
6B
330
1F
100
AcDbEntity
  8
0
  6
PHANTOM
 62
     8
370
     0
100
AcDbLine
 10
130.1614509422
 20
88.1465882457
 30
0.0
 11
130.1614509422
 21
91.1465882457
 31
0.0
  0
LINE
  5
6C
330
1F
100
AcDbEntity
  8
0
  6
PHANTOM
 62
     8
370
     0
100
AcDbLine
 10
134.6100295859
 20
87.9465882457
 30
0.0
 11
134.6100295859
 21
89.2465882457
 31
0.0
  0
LINE
  5
6D
330
1F
100
AcDbEntity
  8
0
  6
PHANTOM
 62
     8
370
     0
100
AcDbLine
 10
134.4686082297
 20
89.3465882457
 30
0.0
 11
134.4686082297
 21
87.9465882457
 31
0.0
  0
LINE
  5
6E
330
1F
100
AcDbEntity
  8
0
  6
PHANTOM
 62
     8
370
     0
100
AcDbLine
 10
135.1757150109
 20
89.2465882457
 30
0.0
 11
135.1757150109
 21
87.9465882457
 31
0.0
  0
LWPOLYLINE
  5
6F
330
1F
100
AcDbEntity
  8
0
  6
PHANTOM
 62
     8
370
     0
100
AcDbPolyline
 90
       11
 70
   128
 43
0.0
 10
129.6614509422
 20
89.4465045035
 10
129.6424933598
 20
89.4416938974
 10
129.6227814672
 20
89.4274899452
 10
129.6071380207
 20
89.405366771
 10
129.5970943098
 20
89.3774899452
 10
129.5936334829
 20
89.3465882457
 10
129.5970943098
 20
89.3156865463
 10
129.6071380207
 20
89.2878097205
 10
129.6227814672
 20
89.2656865463
 10
129.6424933598
 20
89.2514825941
 10
129.6614509422
 20
89.2466719879
  0
ARC
  5
70
330
1F
100
AcDbEntity
  8
0
  6
Continuous
 62
     7
370
     0
100
AcDbCircle
 10
159.0585577234
 20
89.3465882457
 30
0.0
 40
0.0999999999999943
100
AcDbArc
 50
90.0
 51
270.0
  0
LINE
  5
71
330
1F
100
AcDbEntity
  8
0
  6
Continuous
 62
     7
370
     0
100
AcDbLine
 10
159.3121111139
 20
89.2465882457
 30
0.0
 11
159.3121111139
 21
87.9465882457
 31
0.0
  0
ARC
  5
72
330
1F
100
AcDbEntity
  8
0
  6
Continuous
 62
     7
370
     0
100
AcDbCircle
 10
164.8527712857
 20
89.3465882457
 30
0.0
 40
0.1000000000000024
100
AcDbArc
 50
271.6579236272
 51
88.3420763728
  0
LINE
  5
73
330
1F
100
AcDbEntity
  8
0
  6
Continuous
 62
     7
370
     0
100
AcDbLine
 10
160.048507217
 20
89.4465882457
 30
0.0
 11
159.6242431483
 21
89.4465882457
 31
0.0
  0
ARC
  5
74
330
1F
100
AcDbEntity
  8
0
  6
Continuous
 62
     7
370
     0
100
AcDbCircle
 10
160.0308295475
 20
89.3590882457
 30
0.0
 40
0.089267855356825
100
AcDbArc
 50
351.9505330245
 51
78.578246341
  0
ELLIPSE
  5
75
330
1F
100
AcDbEntity
  8
0
  6
Continuous
 62
     7
370
     0
100
AcDbEllipse
 10
159.9777965389
 20
89.3465882457
 30
0.0
 11
0.09238795325111938
 21
0.09238795325111938
 31
0.0
210
0.0
220
0.0
230
0.9999999999999998
 40
0.4142135624
 41
3.534291735288131
 42
5.105088062083533
  0
LINE
  5
76
330
1F
100
AcDbEntity
  8
0
  6
Continuous
 62
     7
370
     0
100
AcDbLine
 10
159.6242431483
 20
89.2465882457
 30
0.0
 11
159.9070858608
 21
89.2465882457
 31
0.0
  0
LINE
  5
77
330
1F
100
AcDbEntity
  8
0
  6
Continuous
 62
     7
370
     0
100
AcDbLine
 10
159.6242431483
 20
89.4465882457
 30
0.0
 11
159.0585577234
 21
89.4465882457
 31
0.0
  0
LINE
  5
78
330
1F
100
AcDbEntity
  8
0
  6
Continuous
 62
     7
370
     0
100
AcDbLine
 10
159.0585577234
 20
89.2465882457
 30
0.0
 11
159.6242431483
 21
89.2465882457
 31
0.0
  0
LINE
  5
79
330
1F
100
AcDbEntity
  8
0
  6
Continuous
 62
     7
370
     0
100
AcDbLine
 10
160.4756645045
 20
91.1465882457
 30
0.0
 11
160.4756645045
 21
88.1465882457
 31
0.0
  0
LINE
  5
7A
330
1F
100
AcDbEntity
  8
0
  6
Continuous
 62
     7
370
     0
100
AcDbLine
 10
160.4756645045
 20
91.1465882457
 30
0.0
 11
164.3556645045
 21
91.1465882457
 31
0.0
  0
LINE
  5
7B
330
1F
100
AcDbEntity
  8
0
  6
Continuous
 62
     7
370
     0
100
AcDbLine
 10
164.3556645045
 20
88.1465882457
 30
0.0
 11
160.4756645045
 21
88.1465882457
 31
0.0
  0
LINE
  5
7C
330
1F
100
AcDbEntity
  8
0
  6
Continuous
 62
     7
370
     0
100
AcDbLine
 10
159.0556645045
 20
88.1465882457
 30
0.0
 11
159.0556645045
 21
89.2466301081
 31
0.0
  0
LINE
  5
7D
330
1F
100
AcDbEntity
  8
0
  6
Continuous
 62
     7
370
     0
100
AcDbLine
 10
159.0556645045
 20
89.4465463834
 30
0.0
 11
159.0556645045
 21
91.1465882457
 31
0.0
  0
LINE
  5
7E
330
1F
100
AcDbEntity
  8
0
  6
Continuous
 62
     7
370
     0
100
AcDbLine
 10
160.1192178951
 20
88.1465882457
 30
0.0
 11
160.1192178951
 21
89.3465882457
 31
0.0
  0
LINE
  5
7F
330
1F
100
AcDbEntity
  8
0
  6
Continuous
 62
     7
370
     0
100
AcDbLine
 10
159.0556645045
 20
91.1465882457
 30
0.0
 11
160.4756645045
 21
91.1465882457
 31
0.0
  0
LINE
  5
80
330
1F
100
AcDbEntity
  8
0
  6
Continuous
 62
     7
370
     0
100
AcDbLine
 10
159.0556645045
 20
88.1465882457
 30
0.0
 11
159.3121111139
 21
88.1465882457
 31
0.0
  0
LINE
  5
81
330
1F
100
AcDbEntity
  8
0
  6
Continuous
 62
     7
370
     0
100
AcDbLine
 10
160.1192178951
 20
88.1465882457
 30
0.0
 11
160.4756645045
 21
88.1465882457
 31
0.0
  0
LINE
  5
82
330
1F
100
AcDbEntity
  8
0
  6
Continuous
 62
     7
370
     0
100
AcDbLine
 10
164.8556645045
 20
88.1465882457
 30
0.0
 11
164.8556645045
 21
91.1465882457
 31
0.0
  0
LINE
  5
83
330
1F
100
AcDbEntity
  8
0
  6
Continuous
 62
     7
370
     0
100
AcDbLine
 10
164.8556645045
 20
91.1465882457
 30
0.0
 11
164.3556645045
 21
91.1465882457
 31
0.0
  0
LINE
  5
84
330
1F
100
AcDbEntity
  8
0
  6
Continuous
 62
     7
370
     0
100
AcDbLine
 10
164.3556645045
 20
88.1465882457
 30
0.0
 11
164.8556645045
 21
88.1465882457
 31
0.0
  0
LINE
  5
85
330
1F
100
AcDbEntity
  8
0
  6
Continuous
 62
     7
370
     0
100
AcDbLine
 10
164.7556645045
 20
87.9465882457
 30
0.0
 11
163.3556645045
 21
87.9465882457
 31
0.0
  0
LINE
  5
86
330
1F
100
AcDbEntity
  8
0
  6
Continuous
 62
     7
370
     0
100
AcDbLine
 10
163.3556645045
 20
88.1465882457
 30
0.0
 11
163.3556645045
 21
87.9465882457
 31
0.0
  0
LINE
  5
87
330
1F
100
AcDbEntity
  8
0
  6
Continuous
 62
     7
370
     0
100
AcDbLine
 10
164.7556645045
 20
88.1465882457
 30
0.0
 11
164.7556645045
 21
87.9465882457
 31
0.0
  0
LINE
  5
88
330
1F
100
AcDbEntity
  8
0
  6
Continuous
 62
     7
370
     0
100
AcDbLine
 10
162.9556645045
 20
88.1465882457
 30
0.0
 11
162.9556645045
 21
87.9465882457
 31
0.0
  0
LINE
  5
89
330
1F
100
AcDbEntity
  8
0
  6
Continuous
 62
     7
370
     0
100
AcDbLine
 10
163.3556645045
 20
87.9465882457
 30
0.0
 11
162.9556645045
 21
87.9465882457
 31
0.0
  0
LINE
  5
8A
330
1F
100
AcDbEntity
  8
0
  6
Continuous
 62
     7
370
     0
100
AcDbLine
 10
160.9556645045
 20
88.1465882457
 30
0.0
 11
160.9556645045
 21
87.9465882457
 31
0.0
  0
LINE
  5
8B
330
1F
100
AcDbEntity
  8
0
  6
Continuous
 62
     7
370
     0
100
AcDbLine
 10
160.9556645045
 20
87.9465882457
 30
0.0
 11
160.5556645045
 21
87.9465882457
 31
0.0
  0
LINE
  5
8C
330
1F
100
AcDbEntity
  8
0
  6
Continuous
 62
     7
370
     0
100
AcDbLine
 10
160.5556645045
 20
88.1465882457
 30
0.0
 11
160.5556645045
 21
87.9465882457
 31
0.0
  0
LINE
  5
8D
330
1F
100
AcDbEntity
  8
0
  6
Continuous
 62
     7
370
     0
100
AcDbLine
 10
160.5556645045
 20
87.9465882457
 30
0.0
 11
160.2092178951
 21
87.9465882457
 31
0.0
  0
LINE
  5
8E
330
1F
100
AcDbEntity
  8
0
  6
Continuous
 62
     7
370
     0
100
AcDbLine
 10
160.2092178951
 20
88.1465882457
 30
0.0
 11
160.2092178951
 21
87.9465882457
 31
0.0
  0
LINE
  5
8F
330
1F
100
AcDbEntity
  8
0
  6
Continuous
 62
     7
370
     0
100
AcDbLine
 10
160.048507217
 20
87.9465882457
 30
0.0
 11
159.9070858608
 21
87.9465882457
 31
0.0
  0
LINE
  5
90
330
1F
100
AcDbEntity
  8
0
  6
Continuous
 62
     7
370
     0
100
AcDbLine
 10
160.2092178951
 20
87.9465882457
 30
0.0
 11
160.048507217
 21
87.9465882457
 31
0.0
  0
LINE
  5
91
330
1F
100
AcDbEntity
  8
0
  6
Continuous
 62
     7
370
     0
100
AcDbLine
 10
159.9070858608
 20
87.9465882457
 30
0.0
 11
159.3414004358
 21
87.9465882457
 31
0.0
  0
LINE
  5
92
330
1F
100
AcDbEntity
  8
0
  6
Continuous
 62
     7
370
     0
100
AcDbLine
 10
159.3414004358
 20
87.9465882457
 30
0.0
 11
159.3121111139
 21
87.9465882457
 31
0.0
  0
LINE
  5
93
330
1F
100
AcDbEntity
  8
0
  6
Continuous
 62
     7
370
     0
100
AcDbLine
 10
159.1556645045
 20
87.9465882457
 30
0.0
 11
159.1556645045
 21
88.1465882457
 31
0.0
  0
LINE
  5
94
330
1F
100
AcDbEntity
  8
0
  6
Continuous
 62
     7
370
     0
100
AcDbLine
 10
159.3121111139
 20
87.9465882457
 30
0.0
 11
159.1556645045
 21
87.9465882457
 31
0.0
  0
LWPOLYLINE
  5
95
330
1F
100
AcDbEntity
  8
0
  6
PHANTOM
 62
     8
370
     0
100
AcDbPolyline
 90
       11
 70
   128
 43
0.0
 10
159.6242431483
 20
89.2465882457
 10
159.6023923471
 20
89.2514825941
 10
159.5826804545
 20
89.2656865463
 10
159.567037008
 20
89.2878097205
 10
159.5569932971
 20
89.3156865463
 10
159.5535324702
 20
89.3465882457
 10
159.5569932971
 20
89.3774899452
 10
159.567037008
 20
89.405366771
 10
159.5826804545
 20
89.4274899452
 10
159.6023923471
 20
89.4416938974
 10
159.6242431483
 20
89.4465882457
  0
LWPOLYLINE
  5
96
330
1F
100
AcDbEntity
  8
0
  6
PHANTOM
 62
     8
370
     0
100
AcDbPolyline
 90
       11
 70
   128
 43
0.0
 10
159.6242431483
 20
89.4465882457
 10
159.6460939495
 20
89.4416938974
 10
159.6658058421
 20
89.4274899452
 10
159.6814492886
 20
89.405366771
 10
159.6914929995
 20
89.3774899452
 10
159.6949538264
 20
89.3465882457
 10
159.6914929995
 20
89.3156865463
 10
159.6814492886
 20
89.2878097205
 10
159.6658058421
 20
89.2656865463
 10
159.6460939495
 20
89.2514825941
 10
159.6242431483
 20
89.2465882457
  0
LINE
  5
97
330
1F
100
AcDbEntity
  8
0
  6
PHANTOM
 62
     8
370
     0
100
AcDbLine
 10
160.048507217
 20
89.3465882457
 30
0.0
 11
160.1192178951
 21
89.3465882457
 31
0.0
  0
LWPOLYLINE
  5
98
330
1F
100
AcDbEntity
  8
0
  6
PHANTOM
 62
     8
370
     0
100
AcDbPolyline
 90
       11
 70
   128
 43
0.0
 10
159.0585577234
 20
89.4465882457
 10
159.0367069221
 20
89.4416938974
 10
159.0169950296
 20
89.4274899452
 10
159.0013515831
 20
89.405366771
 10
158.9913078722
 20
89.3774899452
 10
158.9878470452
 20
89.3465882457
 10
158.9913078722
 20
89.3156865463
 10
159.0013515831
 20
89.2878097205
 10
159.0169950296
 20
89.2656865463
 10
159.0367069221
 20
89.2514825941
 10
159.0585577234
 20
89.2465882457
  0
LINE
  5
99
330
1F
100
AcDbEntity
  8
0
  6
PHANTOM
 62
     8
370
     0
100
AcDbLine
 10
164.3556645045
 20
91.1465882457
 30
0.0
 11
164.3556645045
 21
88.1465882457
 31
0.0
  0
LINE
  5
9A
330
1F
100
AcDbEntity
  8
0
  6
PHANTOM
 62
     8
370
     0
100
AcDbLine
 10
160.048507217
 20
87.9465882457
 30
0.0
 11
160.048507217
 21
89.3465882457
 31
0.0
  0
LINE
  5
9B
330
1F
100
AcDbEntity
  8
0
  6
PHANTOM
 62
     8
370
     0
100
AcDbLine
 10
159.9070858608
 20
89.2465882457
 30
0.0
 11
159.9070858608
 21
87.9465882457
 31
0.0
  0
LINE
  5
9C
330
1F
100
AcDbEntity
  8
0
  6
PHANTOM
 62
     8
370
     0
100
AcDbLine
 10
159.3414004358
 20
87.9465882457
 30
0.0
 11
159.3414004358
 21
89.2465882457
 31
0.0
  0
LWPOLYLINE
  5
9D
330
1F
100
AcDbEntity
  8
0
  6
PHANTOM
 62
     8
370
     0
100
AcDbPolyline
 90
       11
 70
   128
 43
0.0
 10
164.8556645045
 20
89.2466719879
 10
164.8746220869
 20
89.2514825941
 10
164.8943339795
 20
89.2656865463
 10
164.909977426
 20
89.2878097205
 10
164.9200211369
 20
89.3156865463
 10
164.9234819638
 20
89.3465882457
 10
164.9200211369
 20
89.3774899452
 10
164.909977426
 20
89.405366771
 10
164.8943339795
 20
89.4274899452
 10
164.8746220869
 20
89.4416938974
 10
164.8556645045
 20
89.4465045035
  0
LINE
  5
9E
330
1F
100
AcDbEntity
  8
0
  6
Continuous
 62
     7
370
     0
100
AcDbLine
 10
130.1593189078
 20
120.5116155639
 30
0.0
 11
129.5936334829
 21
119.9459301389
 31
0.0
  0
LINE
  5
9F
330
1F
100
AcDbEntity
  8
0
  6
Continuous
 62
     7
370
     0
100
AcDbLine
 10
130.6542936546
 20
120.1580621733
 30
0.0
 11
130.300740264
 21
120.5116155639
 31
0.0
  0
ARC
  5
A0
330
1F
100
AcDbEntity
  8
0
  6
Continuous
 62
     7
370
     0
100
AcDbCircle
 10
130.2300295859
 20
120.4409048857
 30
0.0
 40
0.1000000000000149
100
AcDbArc
 50
45.0
 51
135.0
  0
LINE
  5
A1
330
1F
100
AcDbEntity
  8
0
  6
Continuous
 62
     7
370
     0
100
AcDbLine
 10
129.5936334829
 20
119.8045087827
 30
0.0
 11
129.9471868735
 21
119.4509553921
 31
0.0
  0
ARC
  5
A2
330
1F
100
AcDbEntity
  8
0
  6
Continuous
 62
     7
370
     0
100
AcDbCircle
 10
129.664344161
 20
119.8752194608
 30
0.0
 40
0.0999999999999948
100
AcDbArc
 50
135.0
 51
180.0
  0
ARC
  5
A3
330
1F
100
AcDbEntity
  8
0
  6
Continuous
 62
     7
370
     0
100
AcDbCircle
 10
129.664344161
 20
119.8752194608
 30
0.0
 40
0.1000000000000048
100
AcDbArc
 50
180.0
 51
225.0
  0
LINE
  5
A4
330
1F
100
AcDbEntity
  8
0
  6
Continuous
 62
     7
370
     0
100
AcDbLine
 10
135.5292684015
 20
115.2830874264
 30
0.0
 11
135.1757150109
 21
115.636640817
 31
0.0
  0
ARC
  5
A5
330
1F
100
AcDbEntity
  8
0
  6
Continuous
 62
     7
370
     0
100
AcDbCircle
 10
135.4585577234
 20
115.2123767483
 30
0.0
 40
0.0999999999999943
100
AcDbArc
 50
0.0
 51
45.0
  0
ARC
  5
A6
330
1F
100
AcDbEntity
  8
0
  6
Continuous
 62
     7
370
     0
100
AcDbCircle
 10
135.4585577234
 20
115.2123767483
 30
0.0
 40
0.0999999999999948
100
AcDbArc
 50
315.0
 51
0.0
  0
LINE
  5
A7
330
1F
100
AcDbEntity
  8
0
  6
Continuous
 62
     7
370
     0
100
AcDbLine
 10
134.9635829765
 20
114.5759806452
 30
0.0
 11
135.5292684015
 21
115.1416660702
 31
0.0
  0
LINE
  5
A8
330
1F
100
AcDbEntity
  8
0
  6
Continuous
 62
     7
370
     0
100
AcDbLine
 10
134.4686082297
 20
114.9295340358
 30
0.0
 11
134.8221616203
 21
114.5759806452
 31
0.0
  0
ARC
  5
A9
330
1F
100
AcDbEntity
  8
0
  6
Continuous
 62
     7
370
     0
100
AcDbCircle
 10
134.8928722984
 20
114.6466913234
 30
0.0
 40
0.1000000000000149
100
AcDbArc
 50
225.0
 51
315.0
  0
CIRCLE
  5
AA
330
1F
100
AcDbEntity
  8
0
  6
Continuous
 62
     7
370
     0
100
AcDbCircle
 10
132.5614509422
 20
117.5437981046
 30
0.0
 40
2.849999999999994
  0
ARC
  5
AB
330
1F
100
AcDbEntity
  8
0
  6
Continuous
 62
     7
370
     0
100
AcDbCircle
 10
130.1614509422
 20
115.1437981046
 30
0.0
 40
0.5
100
AcDbArc
 50
180.0
 51
270.0
  0
LINE
  5
AC
330
1F
100
AcDbEntity
  8
0
  6
Continuous
 62
     7
370
     0
100
AcDbLine
 10
129.6614509422
 20
119.0237981046
 30
0.0
 11
129.6614509422
 21
115.1437981046
 31
0.0
  0
LINE
  5
AD
330
1F
100
AcDbEntity
  8
0
  6
Continuous
 62
     7
370
     0
100
AcDbLine
 10
131.0814509422
 20
120.4437981046
 30
0.0
 11
129.6614509422
 21
119.0237981046
 31
0.0
  0
LINE
  5
AE
330
1F
100
AcDbEntity
  8
0
  6
Continuous
 62
     7
370
     0
100
AcDbLine
 10
134.9614509422
 20
120.4437981046
 30
0.0
 11
131.0814509422
 21
120.4437981046
 31
0.0
  0
ARC
  5
AF
330
1F
100
AcDbEntity
  8
0
  6
Continuous
 62
     7
370
     0
100
AcDbCircle
 10
134.9614509422
 20
119.9437981046
 30
0.0
 40
0.5000000000000284
100
AcDbArc
 50
0.0
 51
90.0
  0
LINE
  5
B0
330
1F
100
AcDbEntity
  8
0
  6
Continuous
 62
     7
370
     0
100
AcDbLine
 10
135.4614509422
 20
116.0637981046
 30
0.0
 11
135.4614509422
 21
119.9437981046
 31
0.0
  0
LINE
  5
B1
330
1F
100
AcDbEntity
  8
0
  6
Continuous
 62
     7
370
     0
100
AcDbLine
 10
134.0414509422
 20
114.6437981046
 30
0.0
 11
135.4614509422
 21
116.0637981046
 31
0.0
  0
LINE
  5
B2
330
1F
100
AcDbEntity
  8
0
  6
Continuous
 62
     7
370
     0
100
AcDbLine
 10
130.1614509422
 20
114.6437981046
 30
0.0
 11
134.0414509422
 21
114.6437981046
 31
0.0
  0
LINE
  5
B3
330
1F
100
AcDbEntity
  8
0
  6
Continuous
 62
     7
370
     0
100
AcDbLine
 10
133.2091760676
 20
118.4983847807
 30
0.0
 11
133.2091760676
 21
118.3429374822
 31
0.0
  0
LINE
  5
B4
330
1F
100
AcDbEntity
  8
0
  6
Continuous
 62
     7
370
     0
100
AcDbLine
 10
131.9288394865
 20
118.4983847807
 30
0.0
 11
133.2091760676
 21
118.4983847807
 31
0.0
  0
LINE
  5
B5
330
1F
100
AcDbEntity
  8
0
  6
Continuous
 62
     7
370
     0
100
AcDbLine
 10
131.9288394865
 20
118.2849215389
 30
0.0
 11
131.9288394865
 21
118.4983847807
 31
0.0
  0
LINE
  5
B6
330
1F
100
AcDbEntity
  8
0
  6
Continuous
 62
     7
370
     0
100
AcDbLine
 10
132.916882002
 20
118.2849215389
 30
0.0
 11
131.9288394865
 21
118.2849215389
 31
0.0
  0
LINE
  5
B7
330
1F
100
AcDbEntity
  8
0
  6
Continuous
 62
     7
370
     0
100
AcDbLine
 10
132.0448713732
 20
116.5001562599
 30
0.0
 11
132.916882002
 21
118.2849215389
 31
0.0
  0
LINE
  5
B8
330
1F
100
AcDbEntity
  8
0
  6
Continuous
 62
     7
370
     0
100
AcDbLine
 10
132.3092646415
 20
116.5001562599
 30
0.0
 11
132.0448713732
 21
116.5001562599
 31
0.0
  0
LINE
  5
B9
330
1F
100
AcDbEntity
  8
0
  6
Continuous
 62
     7
370
     0
100
AcDbLine
 10
133.2091760676
 20
118.3429374822
 30
0.0
 11
132.3092646415
 21
116.5001562599
 31
0.0
  0
LINE
  5
BA
330
1F
100
AcDbEntity
  8
0
  6
Continuous
 62
     7
370
     0
100
AcDbLine
 10
131.7919927195
 20
118.4983847807
 30
0.0
 11
131.7919927195
 21
118.3429374822
 31
0.0
  0
LINE
  5
BB
330
1F
100
AcDbEntity
  8
0
  6
Continuous
 62
     7
370
     0
100
AcDbLine
 10
130.5116561384
 20
118.4983847807
 30
0.0
 11
131.7919927195
 21
118.4983847807
 31
0.0
  0
LINE
  5
BC
330
1F
100
AcDbEntity
  8
0
  6
Continuous
 62
     7
370
     0
100
AcDbLine
 10
130.5116561384
 20
118.2849215389
 30
0.0
 11
130.5116561384
 21
118.4983847807
 31
0.0
  0
LINE
  5
BD
330
1F
100
AcDbEntity
  8
0
  6
Continuous
 62
     7
370
     0
100
AcDbLine
 10
131.4996986539
 20
118.2849215389
 30
0.0
 11
130.5116561384
 21
118.2849215389
 31
0.0
  0
LINE
  5
BE
330
1F
100
AcDbEntity
  8
0
  6
Continuous
 62
     7
370
     0
100
AcDbLine
 10
130.6276880251
 20
116.5001562599
 30
0.0
 11
131.4996986539
 21
118.2849215389
 31
0.0
  0
LINE
  5
BF
330
1F
100
AcDbEntity
  8
0
  6
Continuous
 62
     7
370
     0
100
AcDbLine
 10
130.8920812934
 20
116.5001562599
 30
0.0
 11
130.6276880251
 21
116.5001562599
 31
0.0
  0
LINE
  5
C0
330
1F
100
AcDbEntity
  8
0
  6
Continuous
 62
     7
370
     0
100
AcDbLine
 10
131.7919927195
 20
118.3429374822
 30
0.0
 11
130.8920812934
 21
116.5001562599
 31
0.0
  0
LINE
  5
C1
330
1F
100
AcDbEntity
  8
0
  6
Continuous
 62
     7
370
     0
100
AcDbLine
 10
134.6263594157
 20
118.4983847807
 30
0.0
 11
134.6263594157
 21
118.3429374822
 31
0.0
  0
LINE
  5
C2
330
1F
100
AcDbEntity
  8
0
  6
Continuous
 62
     7
370
     0
100
AcDbLine
 10
133.3460228346
 20
118.4983847807
 30
0.0
 11
134.6263594157
 21
118.4983847807
 31
0.0
  0
LINE
  5
C3
330
1F
100
AcDbEntity
  8
0
  6
Continuous
 62
     7
370
     0
100
AcDbLine
 10
133.3460228346
 20
118.2849215389
 30
0.0
 11
133.3460228346
 21
118.4983847807
 31
0.0
  0
LINE
  5
C4
330
1F
100
AcDbEntity
  8
0
  6
Continuous
 62
     7
370
     0
100
AcDbLine
 10
134.3340653501
 20
118.2849215389
 30
0.0
 11
133.3460228346
 21
118.2849215389
 31
0.0
  0
LINE
  5
C5
330
1F
100
AcDbEntity
  8
0
  6
Continuous
 62
     7
370
     0
100
AcDbLine
 10
133.4620547213
 20
116.5001562599
 30
0.0
 11
134.3340653501
 21
118.2849215389
 31
0.0
  0
LINE
  5
C6
330
1F
100
AcDbEntity
  8
0
  6
Continuous
 62
     7
370
     0
100
AcDbLine
 10
133.7264479896
 20
116.5001562599
 30
0.0
 11
133.4620547213
 21
116.5001562599
 31
0.0
  0
LINE
  5
C7
330
1F
100
AcDbEntity
  8
0
  6
Continuous
 62
     7
370
     0
100
AcDbLine
 10
134.6263594157
 20
118.3429374822
 30
0.0
 11
133.7264479896
 21
116.5001562599
 31
0.0
  0
CIRCLE
  5
C8
330
1F
100
AcDbEntity
  8
0
  6
Continuous
 62
     7
370
     0
100
AcDbCircle
 10
132.5614509422
 20
117.5437981046
 30
0.0
 40
2.847999999999985
  0
LINE
  5
C9
330
1F
100
AcDbEntity
  8
0
  6
Continuous
 62
     7
370
     0
100
AcDbLine
 10
130.7250043328
 20
120.0873514951
 30
0.0
 11
130.6542936546
 21
120.1580621733
 31
0.0
  0
LINE
  5
CA
330
1F
100
AcDbEntity
  8
0
  6
Continuous
 62
     7
370
     0
100
AcDbLine
 10
129.9471868735
 20
119.4509553921
 30
0.0
 11
130.0178975516
 21
119.380244714
 31
0.0
  0
LINE
  5
CB
330
1F
100
AcDbEntity
  8
0
  6
Continuous
 62
     7
370
     0
100
AcDbLine
 10
135.1757150109
 20
115.636640817
 30
0.0
 11
135.1050043328
 21
115.7073514951
 31
0.0
  0
LINE
  5
CC
330
1F
100
AcDbEntity
  8
0
  6
Continuous
 62
     7
370
     0
100
AcDbLine
 10
134.3978975516
 20
115.000244714
 30
0.0
 11
134.4686082297
 21
114.9295340358
 31
0.0
  0
LINE
  5
CD
330
1F
100
AcDbEntity
  8
0
  6
PHANTOM
 62
     8
370
     0
100
AcDbLine
 10
130.2300295859
 20
120.4409048857
 30
0.0
 11
130.1593189078
 21
120.5116155639
 31
0.0
  0
LINE
  5
CE
330
1F
100
AcDbEntity
  8
0
  6
PHANTOM
 62
     8
370
     0
100
AcDbLine
 10
129.664344161
 20
119.8752194608
 30
0.0
 11
130.2300295859
 21
120.4409048857
 31
0.0
  0
LINE
  5
CF
330
1F
100
AcDbEntity
  8
0
  6
PHANTOM
 62
     8
370
     0
100
AcDbLine
 10
129.5936334829
 20
119.9459301389
 30
0.0
 11
129.664344161
 21
119.8752194608
 31
0.0
  0
LINE
  5
D0
330
1F
100
AcDbEntity
  8
0
  6
PHANTOM
 62
     8
370
     0
100
AcDbLine
 10
130.300740264
 20
120.5116155639
 30
0.0
 11
130.2300295859
 21
120.4409048857
 31
0.0
  0
LINE
  5
D1
330
1F
100
AcDbEntity
  8
0
  6
PHANTOM
 62
     8
370
     0
100
AcDbLine
 10
130.2300295859
 20
120.4409048857
 30
0.0
 11
130.6542936546
 21
120.016640817
 31
0.0
  0
LINE
  5
D2
330
1F
100
AcDbEntity
  8
0
  6
PHANTOM
 62
     8
370
     0
100
AcDbLine
 10
130.0886082297
 20
119.4509553921
 30
0.0
 11
129.664344161
 21
119.8752194608
 31
0.0
  0
LINE
  5
D3
330
1F
100
AcDbEntity
  8
0
  6
PHANTOM
 62
     8
370
     0
100
AcDbLine
 10
129.664344161
 20
119.8752194608
 30
0.0
 11
129.5936334829
 21
119.8045087827
 31
0.0
  0
LINE
  5
D4
330
1F
100
AcDbEntity
  8
0
  6
PHANTOM
 62
     8
370
     0
100
AcDbLine
 10
135.0342936546
 20
115.636640817
 30
0.0
 11
135.4585577234
 21
115.2123767483
 31
0.0
  0
LINE
  5
D5
330
1F
100
AcDbEntity
  8
0
  6
PHANTOM
 62
     8
370
     0
100
AcDbLine
 10
135.4585577234
 20
115.2123767483
 30
0.0
 11
135.5292684015
 21
115.2830874264
 31
0.0
  0
LINE
  5
D6
330
1F
100
AcDbEntity
  8
0
  6
PHANTOM
 62
     8
370
     0
100
AcDbLine
 10
135.4585577234
 20
115.2123767483
 30
0.0
 11
134.8928722984
 21
114.6466913234
 31
0.0
  0
LINE
  5
D7
330
1F
100
AcDbEntity
  8
0
  6
PHANTOM
 62
     8
370
     0
100
AcDbLine
 10
134.8928722984
 20
114.6466913234
 30
0.0
 11
134.4686082297
 21
115.0709553921
 31
0.0
  0
LINE
  5
D8
330
1F
100
AcDbEntity
  8
0
  6
PHANTOM
 62
     8
370
     0
100
AcDbLine
 10
135.5292684015
 20
115.1416660702
 30
0.0
 11
135.4585577234
 21
115.2123767483
 31
0.0
  0
LINE
  5
D9
330
1F
100
AcDbEntity
  8
0
  6
PHANTOM
 62
     8
370
     0
100
AcDbLine
 10
134.8928722984
 20
114.6466913234
 30
0.0
 11
134.9635829765
 21
114.5759806452
 31
0.0
  0
LINE
  5
DA
330
1F
100
AcDbEntity
  8
0
  6
PHANTOM
 62
     8
370
     0
100
AcDbLine
 10
134.8221616203
 20
114.5759806452
 30
0.0
 11
134.8928722984
 21
114.6466913234
 31
0.0
  0
INSERT
  5
E6
330
1F
100
AcDbEntity
  8
0
  6
Continuous
 62
     7
370
     0
100
AcDbBlockReference
  2
SW_CENTERMARKSYMBOL_0
 10
132.5614509422
 20
117.5437981046
 30
0.0
  0
LINE
  5
E7
330
1F
100
AcDbEntity
  8
0
  6
Continuous
 62
     7
370
     0
100
AcDbLine
 10
160.3491067812
 20
119.6065683767
 30
0.0
 11
160.3491067812
 21
119.5449417304
 31
0.0
  0
LINE
  5
E8
330
1F
100
AcDbEntity
  8
0
  6
Continuous
 62
     7
370
     0
100
AcDbLine
 10
166.0451067812
 20
119.5449417304
 30
0.0
 11
166.0451067812
 21
119.6065683767
 31
0.0
  0
LINE
  5
E9
330
1F
100
AcDbEntity
  8
0
  6
Continuous
 62
     7
370
     0
100
AcDbLine
 10
162.7971067812
 20
115.9024885231
 30
0.0
 11
163.5971067812
 21
115.9024885231
 31
0.0
  0
ARC
  5
EA
330
1F
100
AcDbEntity
  8
0
  6
Continuous
 62
     7
370
     0
100
AcDbCircle
 10
163.6096954785
 20
115.9980853008
 30
0.0
 40
0.0869315351982084
100
AcDbArc
 50
328.367636718
 51
2.9029646873
  0
ARC
  5
EB
330
1F
100
AcDbEntity
  8
0
  6
Continuous
 62
     7
370
     0
100
AcDbCircle
 10
163.6006798736
 20
115.9983564054
 30
0.0
 40
0.094856494192245
100
AcDbArc
 50
267.8605185375
 51
331.0829054102
  0
ARC
  5
EC
330
1F
100
AcDbEntity
  8
0
  6
Continuous
 62
     7
370
     0
100
AcDbCircle
 10
162.7924838123
 20
115.9983288857
 30
0.0
 40
0.094876962628347
100
AcDbArc
 50
177.4868403177
 51
272.8059751289
  0
LINE
  5
ED
330
1F
100
AcDbEntity
  8
0
  6
Continuous
 62
     7
370
     0
100
AcDbLine
 10
163.6971067812
 20
116.0024885231
 30
0.0
 11
163.6971067812
 21
116.2911323792
 31
0.0
  0
LINE
  5
EE
330
1F
100
AcDbEntity
  8
0
  6
Continuous
 62
     7
370
     0
100
AcDbLine
 10
162.6971067812
 20
116.2911323792
 30
0.0
 11
162.6971067812
 21
116.0024885231
 31
0.0
  0
LINE
  5
EF
330
1F
100
AcDbEntity
  8
0
  6
Continuous
 62
     7
370
     0
100
AcDbLine
 10
167.0912193309
 20
117.156945941
 30
0.0
 11
167.0912193309
 21
119.6065683767
 31
0.0
  0
LINE
  5
F0
330
1F
100
AcDbEntity
  8
0
  6
Continuous
 62
     7
370
     0
100
AcDbLine
 10
159.3029942315
 20
119.6065683767
 30
0.0
 11
159.3029942315
 21
117.156945941
 31
0.0
  0
LINE
  5
F1
330
1F
100
AcDbEntity
  8
0
  6
Continuous
 62
     7
370
     0
100
AcDbLine
 10
163.5971067812
 20
116.4305152316
 30
0.0
 11
162.7971067812
 21
116.4305152316
 31
0.0
  0
ARC
  5
F2
330
1F
100
AcDbEntity
  8
0
  6
Continuous
 62
     7
370
     0
100
AcDbCircle
 10
162.7887752536
 20
116.3386577075
 30
0.0
 40
0.0922345872558989
100
AcDbArc
 50
84.8174221345
 51
173.6486598634
  0
LINE
  5
F3
330
1F
100
AcDbEntity
  8
0
  6
Continuous
 62
     7
370
     0
100
AcDbLine
 10
162.1930151519
 20
115.3690121761
 30
0.0
 11
162.6971067812
 21
115.3690121761
 31
0.0
  0
LINE
  5
F4
330
1F
100
AcDbEntity
  8
0
  6
Continuous
 62
     7
370
     0
100
AcDbLine
 10
162.1930151519
 20
115.3690121761
 30
0.0
 11
162.1930151519
 21
117.8186346118
 31
0.0
  0
LINE
  5
F5
330
1F
100
AcDbEntity
  8
0
  6
Continuous
 62
     7
370
     0
100
AcDbLine
 10
162.1930151519
 20
117.8186346118
 30
0.0
 11
164.2011984105
 21
117.8186346118
 31
0.0
  0
LINE
  5
F6
330
1F
100
AcDbEntity
  8
0
  6
Continuous
 62
     7
370
     0
100
AcDbLine
 10
164.2011984105
 20
117.8186346118
 30
0.0
 11
164.2011984105
 21
115.3690121761
 31
0.0
  0
LINE
  5
F7
330
1F
100
AcDbEntity
  8
0
  6
Continuous
 62
     7
370
     0
100
AcDbLine
 10
163.6971067812
 20
115.3690121761
 30
0.0
 11
164.2011984105
 21
115.3690121761
 31
0.0
  0
ARC
  5
F8
330
1F
100
AcDbEntity
  8
0
  6
Continuous
 62
     7
370
     0
100
AcDbCircle
 10
163.6054383087
 20
116.3386577075
 30
0.0
 40
0.0922345872558826
100
AcDbArc
 50
6.3513401366
 51
95.1825778655
  0
LWPOLYLINE
  5
F9
330
1F
100
AcDbEntity
  8
0
  6
Continuous
 62
     7
370
     0
100
AcDbPolyline
 90
      112
 70
   128
 43
0.0
 10
161.1818524548
 20
118.4431868173
 10
161.0710670758
 20
118.5108685172
 10
160.9670920428
 20
118.582060074
 10
160.8702604194
 20
118.6565334398
 10
160.7808823863
 20
118.734050054
 10
160.6992442485
 20
118.8143616073
 10
160.6256075173
 20
118.8972108378
 10
160.5602080736
 20
118.9823323543
 10
160.5032554113
 20
119.069453487
 10
160.4549319672
 20
119.1582951606
 10
160.4153925356
 20
119.2485727884
 10
160.3847637734
 20
119.3399971841
 10
160.3631437937
 20
119.4322754876
 10
160.3506018519
 20
119.5251121039
 10
160.3471781234
 20
119.6182096491
 10
160.3528835757
 20
119.7112699038
 10
160.3676999323
 20
119.8039947679
 10
160.3915797321
 20
119.8960872158
 10
160.4244464808
 20
119.9872522476
 10
160.4661948963
 20
120.0771978342
 10
160.5166912459
 20
120.1656358527
 10
160.5757737746
 20
120.2522830096
 10
160.6432532231
 20
120.3368617478
 10
160.7189134345
 20
120.4191011362
 10
160.8025120463
 20
120.4987377372
 10
160.8937812669
 20
120.5755164508
 10
160.9924287336
 20
120.6491913316
 10
161.0981384487
 20
120.7195263767
 10
161.2105717922
 20
120.7862962819
 10
161.3293686061
 20
120.8492871629
 10
161.4541483485
 20
120.9082972409
 10
161.5845113122
 20
120.963137489
 10
161.7200399053
 20
121.0136322373
 10
161.8602999889
 20
121.0596197358
 10
162.0048422678
 20
121.1009526727
 10
162.1532037292
 20
121.1374986462
 10
162.3049091269
 20
121.1691405886
 10
162.4594725026
 20
121.195777141
 10
162.6163987434
 20
121.2173229787
 10
162.775185167
 20
121.2337090838
 10
162.9353231327
 20
121.2448829666
 10
163.0962996704
 20
121.250808834
 10
163.2575991237
 20
121.2514677034
 10
163.4187048017
 20
121.2468574644
 10
163.5791006345
 20
121.2369928849
 10
163.7382728258
 20
121.2219055642
 10
163.8957114992
 20
121.2016438315
 10
164.050912331
 20
121.1762725913
 10
164.2033781662
 20
121.1458731152
 10
164.3526206108
 20
121.110542782
 10
164.4981615963
 20
121.0703947653
 10
164.6395349109
 20
121.0255576715
 10
164.7762876934
 20
120.9761751271
 10
164.9079818834
 20
120.9224053194
 10
165.0341956246
 20
120.8644204893
 10
165.1545246164
 20
120.8024063796
 10
165.2685834087
 20
120.7365616403
 10
165.376006637
 20
120.6670971919
 10
165.4764501921
 20
120.5942355501
 10
165.5695923231
 20
120.5182101124
 10
165.6551346676
 20
120.4392644115
 10
165.7328032078
 20
120.3576513342
 10
165.8023491479
 20
120.2736323116
 10
165.8635497113
 20
120.1874764822
 10
165.9162088541
 20
120.0994598291
 10
165.9601578933
 20
120.009864296
 10
165.9952560467
 20
119.9189768844
 10
166.0213908845
 20
119.8270887343
 10
166.0384786888
 20
119.7344941909
 10
166.0464647223
 20
119.6414898627
 10
166.0453234033
 20
119.5483736703
 10
166.0350583878
 20
119.4554438932
 10
166.0157025577
 20
119.3629982133
 10
165.9873179156
 20
119.2713327621
 10
165.9499953861
 20
119.1807411716
 10
165.9038545245
 20
119.0915136341
 10
165.8490431338
 20
119.0039359722
 10
165.7857367914
 20
118.9182887235
 10
165.7141382868
 20
118.8348462421
 10
165.6344769714
 20
118.7538758193
 10
165.5470080245
 20
118.6756368278
 10
165.4520116355
 20
118.6003798908
 10
165.3497921064
 20
118.5283460788
 10
165.2406768772
 20
118.4597661379
 10
165.125015477
 20
118.3948597503
 10
165.0031784039
 20
118.3338348307
 10
164.875555939
 20
118.2768868603
 10
164.7425568954
 20
118.2241982608
 10
164.6046073092
 20
118.1759378094
 10
164.4621490745
 20
118.1322600991
 10
164.3156385279
 20
118.0933050426
 10
164.1655449869
 20
118.0591974249
 10
164.0123492464
 20
118.0300465027
 10
163.8565420385
 20
118.0059456554
 10
163.6986224607
 20
117.9869720853
 10
163.5390963769
 20
117.9731865703
 10
163.3784747974
 20
117.9646332697
 10
163.2172722414
 20
117.9613395822
 10
163.0560050894
 20
117.9633160586
 10
162.8951899287
 20
117.9705563675
 10
162.7353418986
 20
117.9830373161
 10
162.5769730407
 20
118.0007189242
 10
162.4205906581
 20
118.0235445521
 10
162.2666956908
 20
118.0514410827
 10
162.1157811106
 20
118.0843191547
 10
161.9683303426
 20
118.12207345
 10
161.824815716
 20
118.16458303
 10
161.6856969513
 20
118.2117117239
 10
161.551419688
 20
118.2633085641
 10
161.4224140566
 20
118.3192082704
 10
161.299093301
 20
118.3792317793
 10
161.1818524548
 20
118.4431868173
  0
ARC
  5
FA
330
1F
100
AcDbEntity
  8
0
  6
Continuous
 62
     7
370
     0
100
AcDbCircle
 10
159.5288866933
 20
119.6065683767
 30
0.0
 40
0.2190189062021328
100
AcDbArc
 50
111.2682653033
 51
248.7317346967
  0
LINE
  5
FB
330
1F
100
AcDbEntity
  8
0
  6
Continuous
 62
     7
370
     0
100
AcDbLine
 10
162.1930151519
 20
121.3945021415
 30
0.0
 11
159.4494408409
 21
119.8106704046
 31
0.0
  0
LINE
  5
FC
330
1F
100
AcDbEntity
  8
0
  6
Continuous
 62
     7
370
     0
100
AcDbLine
 10
164.2011984105
 20
121.3945021415
 30
0.0
 11
162.1930151519
 21
121.3945021415
 31
0.0
  0
LINE
  5
FD
330
1F
100
AcDbEntity
  8
0
  6
Continuous
 62
     7
370
     0
100
AcDbLine
 10
166.9447727215
 20
119.8106704046
 30
0.0
 11
164.2011984105
 21
121.3945021415
 31
0.0
  0
ARC
  5
FE
330
1F
100
AcDbEntity
  8
0
  6
Continuous
 62
     7
370
     0
100
AcDbCircle
 10
166.8653268691
 20
119.6065683767
 30
0.0
 40
0.2190189062021224
100
AcDbArc
 50
291.2682653033
 51
68.7317346967
  0
LINE
  5
FF
330
1F
100
AcDbEntity
  8
0
  6
Continuous
 62
     7
370
     0
100
AcDbLine
 10
164.2011984105
 20
117.8186346118
 30
0.0
 11
166.9447727215
 21
119.4024663487
 31
0.0
  0
LINE
  5
100
330
1F
100
AcDbEntity
  8
0
  6
Continuous
 62
     7
370
     0
100
AcDbLine
 10
159.4494408409
 20
119.4024663487
 30
0.0
 11
162.1930151519
 21
117.8186346118
 31
0.0
  0
LINE
  5
101
330
1F
100
AcDbEntity
  8
0
  6
Continuous
 62
     7
370
     0
100
AcDbLine
 10
164.3301123216
 20
119.7318305063
 30
0.0
 11
164.2201944828
 21
119.6683762885
 31
0.0
  0
LINE
  5
102
330
1F
100
AcDbEntity
  8
0
  6
Continuous
 62
     7
370
     0
100
AcDbLine
 10
163.424777643
 20
120.2544690916
 30
0.0
 11
164.3301123216
 21
119.7318305063
 31
0.0
  0
LINE
  5
103
330
1F
100
AcDbEntity
  8
0
  6
Continuous
 62
     7
370
     0
100
AcDbLine
 10
163.2738363372
 20
120.1673325305
 30
0.0
 11
163.424777643
 21
120.2544690916
 31
0.0
  0
LINE
  5
104
330
1F
100
AcDbEntity
  8
0
  6
Continuous
 62
     7
370
     0
100
AcDbLine
 10
163.9724879
 20
119.7640095682
 30
0.0
 11
163.2738363372
 21
120.1673325305
 31
0.0
  0
LINE
  5
105
330
1F
100
AcDbEntity
  8
0
  6
Continuous
 62
     7
370
     0
100
AcDbLine
 10
162.0938636394
 20
119.391419418
 30
0.0
 11
163.9724879
 21
119.7640095682
 31
0.0
  0
LINE
  5
106
330
1F
100
AcDbEntity
  8
0
  6
Continuous
 62
     7
370
     0
100
AcDbLine
 10
162.2808179124
 20
119.2834930135
 30
0.0
 11
162.0938636394
 21
119.391419418
 31
0.0
  0
LINE
  5
107
330
1F
100
AcDbEntity
  8
0
  6
Continuous
 62
     7
370
     0
100
AcDbLine
 10
164.2201944828
 20
119.6683762885
 30
0.0
 11
162.2808179124
 21
119.2834930135
 31
0.0
  0
LWPOLYLINE
  5
108
330
1F
100
AcDbEntity
  8
0
  6
Continuous
 62
     7
370
     0
100
AcDbPolyline
 90
      112
 70
   128
 43
0.0
 10
161.1832666684
 20
118.4440032254
 10
161.3004252403
 20
118.3800930681
 10
161.423659455
 20
118.320111681
 10
161.5525745562
 20
118.2642512025
 10
161.6867575898
 20
118.2126905706
 10
161.8257787273
 20
118.1655949496
 10
161.9691926419
 20
118.1231152008
 10
162.1165399357
 20
118.0853873998
 10
162.2673486108
 20
118.0525324001
 10
162.4211355817
 20
118.024655446
 10
162.5774082223
 20
118.0018458361
 10
162.7356659442
 20
117.9841766362
 10
162.8954018002
 20
117.9717044461
 10
163.0561041082
 20
117.9644692181
 10
163.2172580902
 20
117.9624941287
 10
163.3783475216
 20
117.9657855049
 10
163.5388563842
 20
117.9743328032
 10
163.6982705198
 20
117.9881086441
 10
163.8560792769
 20
118.0070688995
 10
164.0117771464
 20
118.0311528339
 10
164.1648653811
 20
118.0602832992
 10
164.3148535933
 20
118.0943669818
 10
164.4612613255
 20
118.1332947014
 10
164.6036195895
 20
118.1769417607
 10
164.741472369
 20
118.2251683451
 10
164.8743780799
 20
118.2778199702
 10
165.0019109852
 20
118.334727977
 10
165.1236625586
 20
118.3957100721
 10
165.2392427929
 20
118.4605709114
 10
165.34828145
 20
118.529102726
 10
165.4504292461
 20
118.601085988
 10
165.545358971
 20
118.6762901131
 10
165.6327665362
 20
118.7544742
 10
165.7123719489
 20
118.8353878015
 10
165.783920209
 20
118.9187717268
 10
165.8471821258
 20
119.0043588721
 10
165.9019550524
 20
119.091875076
 10
165.9480635345
 20
119.1810399978
 10
165.9853598727
 20
119.2715680152
 10
166.0137245958
 20
119.3631691397
 10
166.0330668428
 20
119.4555499454
 10
166.0433246548
 20
119.5484145087
 10
166.0444651729
 20
119.6414653564
 10
166.0364847436
 20
119.7344044184
 10
166.0194089307
 20
119.8269339832
 10
165.9932924332
 20
119.9187576504
 10
165.95821891
 20
120.0095812813
 10
165.9143007123
 20
120.0991139403
 10
165.8616785233
 20
120.1870688274
 10
165.8005209077
 20
120.2731641966
 10
165.7310237718
 20
120.3571242584
 10
165.6534097358
 20
120.4386800634
 10
165.5679274209
 20
120.5175703639
 10
165.4748506528
 20
120.5935424503
 10
165.3744775844
 20
120.6663529612
 10
165.2671297409
 20
120.7357686626
 10
165.1531509898
 20
120.8015671951
 10
165.0329064394
 20
120.863537786
 10
164.9067812693
 20
120.921481925
 10
164.7751794963
 20
120.9752139995
 10
164.6385226807
 20
121.0245618895
 10
164.4972485753
 20
121.0693675188
 10
164.3518097239
 20
121.1094873614
 10
164.2026720108
 20
121.1447929014
 10
164.0503131692
 20
121.1751710445
 10
163.8952212502
 20
121.2005244803
 10
163.7378930602
 20
121.2207719943
 10
163.5788325687
 20
121.2358487274
 10
163.4185492944
 20
121.2457063843
 10
163.2575566729
 20
121.2503133881
 10
163.0963704123
 20
121.249654981
 10
162.9355068405
 20
121.2437332722
 10
162.7754812523
 20
121.2325672307
 10
162.6168062578
 20
121.2161926246
 10
162.4599901407
 20
121.1946619068
 10
162.3055352305
 20
121.1680440467
 10
162.1539362928
 20
121.1364243092
 10
162.0056789446
 20
121.099903982
 10
161.861238099
 20
121.0586000506
 10
161.7210764435
 20
121.012644824
 10
161.5856429581
 20
120.9621855107
 10
161.4553714772
 20
120.907383747
 10
161.3306792995
 20
120.8484150795
 10
161.2119658518
 20
120.7854684026
 10
161.0996114089
 20
120.7187453536
 10
160.9939758761
 20
120.6484596664
 10
160.8953976357
 20
120.5748364873
 10
160.8041924636
 20
120.4981116535
 10
160.7206525175
 20
120.4185309378
 10
160.645045401
 20
120.3363492613
 10
160.5776133065
 20
120.2518298765
 10
160.5185722393
 20
120.1652435247
 10
160.4681113257
 20
120.0768675679
 10
160.4263922073
 20
119.986985101
 10
160.393548523
 20
119.8958840447
 10
160.369685481
 20
119.8038562231
 10
160.3548795218
 20
119.711196429
 10
160.3491780734
 20
119.6182014798
 10
160.3525993992
 20
119.5251692662
 10
160.3651325397
 20
119.4323977984
 10
160.3867373475
 20
119.3401842516
 10
160.4173446158
 20
119.2488240134
 10
160.4568563004
 20
119.1586097383
 10
160.5051458334
 20
119.0698304097
 10
160.5620585288
 20
118.9827704147
 10
160.6274120782
 20
118.8977086325
 10
160.7009971345
 20
118.8149175419
 10
160.7825779824
 20
118.7346623475
 10
160.871893294
 20
118.657200131
 10
160.9686569654
 20
118.5827790272
 10
161.0725590334
 20
118.5116374294
 10
161.1832666684
 20
118.4440032254
  0
LINE
  5
109
330
1F
100
AcDbEntity
  8
0
  6
Continuous
 62
     7
370
     0
100
AcDbLine
 10
163.328012366
 20
120.3103304969
 30
0.0
 11
163.2180945271
 21
120.2468762792
 31
0.0
  0
LINE
  5
10A
330
1F
100
AcDbEntity
  8
0
  6
Continuous
 62
     7
370
     0
100
AcDbLine
 10
162.4226776874
 20
120.8329690822
 30
0.0
 11
163.328012366
 21
120.3103304969
 31
0.0
  0
LINE
  5
10B
330
1F
100
AcDbEntity
  8
0
  6
Continuous
 62
     7
370
     0
100
AcDbLine
 10
162.2717363815
 20
120.7458325211
 30
0.0
 11
162.4226776874
 21
120.8329690822
 31
0.0
  0
LINE
  5
10C
330
1F
100
AcDbEntity
  8
0
  6
Continuous
 62
     7
370
     0
100
AcDbLine
 10
162.9703879444
 20
120.3425095589
 30
0.0
 11
162.2717363815
 21
120.7458325211
 31
0.0
  0
LINE
  5
10D
330
1F
100
AcDbEntity
  8
0
  6
Continuous
 62
     7
370
     0
100
AcDbLine
 10
161.0917636838
 20
119.9699194087
 30
0.0
 11
162.9703879444
 21
120.3425095589
 31
0.0
  0
LINE
  5
10E
330
1F
100
AcDbEntity
  8
0
  6
Continuous
 62
     7
370
     0
100
AcDbLine
 10
161.2787179568
 20
119.8619930042
 30
0.0
 11
161.0917636838
 21
119.9699194087
 31
0.0
  0
LINE
  5
10F
330
1F
100
AcDbEntity
  8
0
  6
Continuous
 62
     7
370
     0
100
AcDbLine
 10
163.2180945271
 20
120.2468762792
 30
0.0
 11
161.2787179568
 21
119.8619930042
 31
0.0
  0
LINE
  5
110
330
1F
100
AcDbEntity
  8
0
  6
Continuous
 62
     7
370
     0
100
AcDbLine
 10
165.3322122773
 20
119.1533305156
 30
0.0
 11
165.2222944384
 21
119.0898762979
 31
0.0
  0
LINE
  5
111
330
1F
100
AcDbEntity
  8
0
  6
Continuous
 62
     7
370
     0
100
AcDbLine
 10
164.4268775986
 20
119.6759691009
 30
0.0
 11
165.3322122773
 21
119.1533305156
 31
0.0
  0
LINE
  5
112
330
1F
100
AcDbEntity
  8
0
  6
Continuous
 62
     7
370
     0
100
AcDbLine
 10
164.2759362928
 20
119.5888325398
 30
0.0
 11
164.4268775986
 21
119.6759691009
 31
0.0
  0
LINE
  5
113
330
1F
100
AcDbEntity
  8
0
  6
Continuous
 62
     7
370
     0
100
AcDbLine
 10
164.9745878556
 20
119.1855095776
 30
0.0
 11
164.2759362928
 21
119.5888325398
 31
0.0
  0
LINE
  5
114
330
1F
100
AcDbEntity
  8
0
  6
Continuous
 62
     7
370
     0
100
AcDbLine
 10
163.095963595
 20
118.8129194273
 30
0.0
 11
164.9745878556
 21
119.1855095776
 31
0.0
  0
LINE
  5
115
330
1F
100
AcDbEntity
  8
0
  6
Continuous
 62
     7
370
     0
100
AcDbLine
 10
163.282917868
 20
118.7049930228
 30
0.0
 11
163.095963595
 21
118.8129194273
 31
0.0
  0
LINE
  5
116
330
1F
100
AcDbEntity
  8
0
  6
Continuous
 62
     7
370
     0
100
AcDbLine
 10
165.2222944384
 20
119.0898762979
 30
0.0
 11
163.282917868
 21
118.7049930228
 31
0.0
  0
LINE
  5
117
330
1F
100
AcDbEntity
  8
0
  6
Continuous
 62
     7
370
     0
100
AcDbLine
 10
166.9447727215
 20
116.952843913
 30
0.0
 11
164.2011984105
 21
115.3690121761
 31
0.0
  0
LINE
  5
118
330
1F
100
AcDbEntity
  8
0
  6
Continuous
 62
     7
370
     0
100
AcDbLine
 10
162.1930151519
 20
115.3690121761
 30
0.0
 11
159.4494408409
 21
116.952843913
 31
0.0
  0
LINE
  5
119
330
1F
100
AcDbEntity
  8
0
  6
Continuous
 62
     7
370
     0
100
AcDbLine
 10
163.6971067812
 20
116.2911323792
 30
0.0
 11
163.6971067812
 21
116.3488611504
 31
0.0
  0
LINE
  5
11A
330
1F
100
AcDbEntity
  8
0
  6
Continuous
 62
     7
370
     0
100
AcDbLine
 10
162.6971067812
 20
116.3488611504
 30
0.0
 11
162.6971067812
 21
116.2911323792
 31
0.0
  0
LINE
  5
11B
330
1F
100
AcDbEntity
  8
0
  6
Continuous
 62
     7
370
     0
100
AcDbLine
 10
163.5971067812
 20
115.0902464713
 30
0.0
 11
162.7971067812
 21
115.0902464713
 31
0.0
  0
LINE
  5
11C
330
1F
100
AcDbEntity
  8
0
  6
Continuous
 62
     7
370
     0
100
AcDbLine
 10
164.2900807271
 20
119.5806671317
 30
0.0
 11
164.4268775986
 21
119.6596382847
 31
0.0
  0
LINE
  5
11D
330
1F
100
AcDbEntity
  8
0
  6
Continuous
 62
     7
370
     0
100
AcDbLine
 10
164.4268775986
 20
119.6596382847
 30
0.0
 11
165.318067843
 21
119.1451651075
 31
0.0
  0
LINE
  5
11E
330
1F
100
AcDbEntity
  8
0
  6
Continuous
 62
     7
370
     0
100
AcDbLine
 10
163.1170187964
 20
118.8007645183
 30
0.0
 11
164.9745878556
 21
119.1691787613
 31
0.0
  0
LINE
  5
11F
330
1F
100
AcDbEntity
  8
0
  6
Continuous
 62
     7
370
     0
100
AcDbLine
 10
163.6971067812
 20
115.1479752425
 30
0.0
 11
163.6971067812
 21
116.0024885231
 31
0.0
  0
LWPOLYLINE
  5
120
330
1F
100
AcDbEntity
  8
0
  6
Continuous
 62
     7
370
     0
100
AcDbPolyline
 90
        9
 70
   128
 43
0.0
 10
163.6971067812
 20
115.1479752425
 10
163.6951853092
 20
115.136712918
 10
163.6894947344
 20
115.1258833982
 10
163.6802537424
 20
115.1159028557
 10
163.6678174593
 20
115.1071548369
 10
163.6526638045
 20
115.0999755235
 10
163.6353751244
 20
115.0946408124
 10
163.6166158134
 20
115.0913557135
 10
163.5971067812
 20
115.0902464713
  0
LWPOLYLINE
  5
121
330
1F
100
AcDbEntity
  8
0
  6
Continuous
 62
     7
370
     0
100
AcDbPolyline
 90
        9
 70
   128
 43
0.0
 10
162.7971067812
 20
115.0902464713
 10
162.777597749
 20
115.0913557135
 10
162.758838438
 20
115.0946408124
 10
162.7415497579
 20
115.0999755235
 10
162.7263961031
 20
115.1071548369
 10
162.71395982
 20
115.1159028557
 10
162.7047188279
 20
115.1258833982
 10
162.6990282531
 20
115.136712918
 10
162.6971067812
 20
115.1479752425
  0
LINE
  5
122
330
1F
100
AcDbEntity
  8
0
  6
Continuous
 62
     7
370
     0
100
AcDbLine
 10
162.6971067812
 20
116.0024885231
 30
0.0
 11
162.6971067812
 21
115.1479752425
 31
0.0
  0
LINE
  5
123
330
1F
100
AcDbEntity
  8
0
  6
Continuous
 62
     7
370
     0
100
AcDbLine
 10
164.9745878556
 20
119.1855095776
 30
0.0
 11
164.9745878556
 21
119.1691787613
 31
0.0
  0
LINE
  5
124
330
1F
100
AcDbEntity
  8
0
  6
Continuous
 62
     7
370
     0
100
AcDbLine
 10
163.2879807715
 20
120.1591671224
 30
0.0
 11
163.424777643
 21
120.2381382753
 31
0.0
  0
LINE
  5
125
330
1F
100
AcDbEntity
  8
0
  6
Continuous
 62
     7
370
     0
100
AcDbLine
 10
163.424777643
 20
120.2381382753
 30
0.0
 11
164.3159678873
 21
119.7236650981
 31
0.0
  0
LINE
  5
126
330
1F
100
AcDbEntity
  8
0
  6
Continuous
 62
     7
370
     0
100
AcDbLine
 10
162.1149188408
 20
119.379264509
 30
0.0
 11
163.9724879
 21
119.747678752
 31
0.0
  0
LINE
  5
127
330
1F
100
AcDbEntity
  8
0
  6
Continuous
 62
     7
370
     0
100
AcDbLine
 10
164.1870562748
 20
115.3690121761
 30
0.0
 11
164.1870562748
 21
115.2791807438
 31
0.0
  0
LINE
  5
128
330
1F
100
AcDbEntity
  8
0
  6
Continuous
 62
     7
370
     0
100
AcDbLine
 10
164.1870562748
 20
115.2791807438
 30
0.0
 11
163.6971067812
 21
115.2791807438
 31
0.0
  0
LINE
  5
129
330
1F
100
AcDbEntity
  8
0
  6
Continuous
 62
     7
370
     0
100
AcDbLine
 10
162.2071572875
 20
115.2791807438
 30
0.0
 11
162.2071572875
 21
115.3690121761
 31
0.0
  0
LINE
  5
12A
330
1F
100
AcDbEntity
  8
0
  6
Continuous
 62
     7
370
     0
100
AcDbLine
 10
162.6971067812
 20
115.2791807438
 30
0.0
 11
162.2071572875
 21
115.2791807438
 31
0.0
  0
LINE
  5
12B
330
1F
100
AcDbEntity
  8
0
  6
Continuous
 62
     7
370
     0
100
AcDbLine
 10
163.9724879
 20
119.7640095682
 30
0.0
 11
163.9724879
 21
119.747678752
 31
0.0
  0
LINE
  5
12C
330
1F
100
AcDbEntity
  8
0
  6
Continuous
 62
     7
370
     0
100
AcDbLine
 10
164.4698989873
 20
115.5241297174
 30
0.0
 11
164.4698989873
 21
115.4424623662
 31
0.0
  0
LINE
  5
12D
330
1F
100
AcDbEntity
  8
0
  6
Continuous
 62
     7
370
     0
100
AcDbLine
 10
164.4698989873
 20
115.4424623662
 30
0.0
 11
164.1870562748
 21
115.2791807438
 31
0.0
  0
LINE
  5
12E
330
1F
100
AcDbEntity
  8
0
  6
Continuous
 62
     7
370
     0
100
AcDbLine
 10
160.2272583002
 20
116.5038194515
 30
0.0
 11
160.2272583002
 21
116.4221521003
 31
0.0
  0
LINE
  5
12F
330
1F
100
AcDbEntity
  8
0
  6
Continuous
 62
     7
370
     0
100
AcDbLine
 10
162.2071572875
 20
115.2791807438
 30
0.0
 11
160.2272583002
 21
116.4221521003
 31
0.0
  0
LINE
  5
130
330
1F
100
AcDbEntity
  8
0
  6
Continuous
 62
     7
370
     0
100
AcDbLine
 10
164.4268775986
 20
119.6759691009
 30
0.0
 11
164.4268775986
 21
119.6596382847
 31
0.0
  0
ARC
  5
131
330
1F
100
AcDbEntity
  8
0
  6
Continuous
 62
     7
370
     0
100
AcDbCircle
 10
166.843159236
 20
117.1803432402
 30
0.0
 40
0.24916108096342
100
AcDbArc
 50
294.0681184713
 51
354.6117405711
  0
ARC
  5
132
330
1F
100
AcDbEntity
  8
0
  6
Continuous
 62
     7
370
     0
100
AcDbCircle
 10
159.5510543263
 20
117.1803432402
 30
0.0
 40
0.24916108096342
100
AcDbArc
 50
185.3882594289
 51
245.9318815287
  0
LINE
  5
133
330
1F
100
AcDbEntity
  8
0
  6
Continuous
 62
     7
370
     0
100
AcDbLine
 10
162.2858808158
 20
120.737667113
 30
0.0
 11
162.4226776874
 21
120.816638266
 31
0.0
  0
LINE
  5
134
330
1F
100
AcDbEntity
  8
0
  6
Continuous
 62
     7
370
     0
100
AcDbLine
 10
162.4226776874
 20
120.816638266
 30
0.0
 11
163.3138679317
 21
120.3021650888
 31
0.0
  0
LINE
  5
135
330
1F
100
AcDbEntity
  8
0
  6
Continuous
 62
     7
370
     0
100
AcDbLine
 10
161.1128188851
 20
119.9577644997
 30
0.0
 11
162.9703879444
 21
120.3261787427
 31
0.0
  0
LINE
  5
136
330
1F
100
AcDbEntity
  8
0
  6
Continuous
 62
     7
370
     0
100
AcDbLine
 10
162.9703879444
 20
120.3425095589
 30
0.0
 11
162.9703879444
 21
120.3261787427
 31
0.0
  0
LINE
  5
137
330
1F
100
AcDbEntity
  8
0
  6
Continuous
 62
     7
370
     0
100
AcDbLine
 10
163.424777643
 20
120.2544690916
 30
0.0
 11
163.424777643
 21
120.2381382753
 31
0.0
  0
LINE
  5
138
330
1F
100
AcDbEntity
  8
0
  6
Continuous
 62
     7
370
     0
100
AcDbLine
 10
166.1669552622
 20
116.4221521003
 30
0.0
 11
165.8841125497
 21
116.258870478
 31
0.0
  0
LINE
  5
139
330
1F
100
AcDbEntity
  8
0
  6
Continuous
 62
     7
370
     0
100
AcDbLine
 10
165.8841125497
 20
116.3405378292
 30
0.0
 11
165.8841125497
 21
116.258870478
 31
0.0
  0
LINE
  5
13A
330
1F
100
AcDbEntity
  8
0
  6
Continuous
 62
     7
370
     0
100
AcDbLine
 10
166.1669552622
 20
116.5038194515
 30
0.0
 11
166.1669552622
 21
116.4221521003
 31
0.0
  0
LINE
  5
13B
330
1F
100
AcDbEntity
  8
0
  6
Continuous
 62
     7
370
     0
100
AcDbLine
 10
165.8841125497
 20
116.258870478
 30
0.0
 11
165.8133788848
 21
116.2997041536
 31
0.0
  0
LINE
  5
13C
330
1F
100
AcDbEntity
  8
0
  6
Continuous
 62
     7
370
     0
100
AcDbLine
 10
162.4226776874
 20
120.8329690822
 30
0.0
 11
162.4226776874
 21
120.816638266
 31
0.0
  0
LINE
  5
13D
330
1F
100
AcDbEntity
  8
0
  6
PHANTOM
 62
     8
370
     0
100
AcDbLine
 10
166.9447727215
 20
119.4024663487
 30
0.0
 11
166.9447727215
 21
116.952843913
 31
0.0
  0
LINE
  5
13E
330
1F
100
AcDbEntity
  8
0
  6
PHANTOM
 62
     8
370
     0
100
AcDbLine
 10
159.4494408409
 20
116.952843913
 30
0.0
 11
159.4494408409
 21
119.4024663487
 31
0.0
  0
LINE
  5
13F
330
1F
100
AcDbEntity
  8
0
  6
PHANTOM
 62
     8
370
     0
100
AcDbLine
 10
163.5971067812
 20
116.0841426043
 30
0.0
 11
162.7971067812
 21
116.0841426043
 31
0.0
  0
LINE
  5
140
330
1F
100
AcDbEntity
  8
0
  6
PHANTOM
 62
     8
370
     0
100
AcDbLine
 10
163.5971067812
 20
115.9024885231
 30
0.0
 11
163.5971067812
 21
116.0841426043
 31
0.0
  0
LINE
  5
141
330
1F
100
AcDbEntity
  8
0
  6
PHANTOM
 62
     8
370
     0
100
AcDbLine
 10
162.7971067812
 20
116.0841426043
 30
0.0
 11
162.7971067812
 21
115.9024885231
 31
0.0
  0
LINE
  5
142
330
1F
100
AcDbEntity
  8
0
  6
PHANTOM
 62
     8
370
     0
100
AcDbLine
 10
162.7971067812
 20
116.0841426043
 30
0.0
 11
162.7971067812
 21
116.4305152316
 31
0.0
  0
LINE
  5
143
330
1F
100
AcDbEntity
  8
0
  6
PHANTOM
 62
     8
370
     0
100
AcDbLine
 10
163.5971067812
 20
116.4305152316
 30
0.0
 11
163.5971067812
 21
116.0841426043
 31
0.0
  0
ARC
  5
144
330
1F
100
AcDbEntity
  8
0
  6
PHANTOM
 62
     8
370
     0
100
AcDbCircle
 10
163.6060489038
 20
115.9930266062
 30
0.0
 40
0.0915537365227724
100
AcDbArc
 50
5.966018239
 51
95.6050579418
  0
ARC
  5
145
330
1F
100
AcDbEntity
  8
0
  6
PHANTOM
 62
     8
370
     0
100
AcDbCircle
 10
162.7871628422
 20
115.9942652154
 30
0.0
 40
0.0904258090940346
100
AcDbArc
 50
83.6865331761
 51
174.8167119191
  0
LINE
  5
146
330
1F
100
AcDbEntity
  8
0
  6
PHANTOM
 62
     8
370
     0
100
AcDbLine
 10
162.7971067812
 20
115.0902464713
 30
0.0
 11
162.7971067812
 21
115.9024885231
 31
0.0
  0
LINE
  5
147
330
1F
100
AcDbEntity
  8
0
  6
PHANTOM
 62
     8
370
     0
100
AcDbLine
 10
163.5971067812
 20
115.9024885231
 30
0.0
 11
163.5971067812
 21
115.0902464713
 31
0.0
  0
ENDSEC
  0
SECTION
  2
OBJECTS
  0
DICTIONARY
  5
C
330
0
100
AcDbDictionary
281
     1
  3
ACAD_GROUP
350
D
  3
ACAD_LAYOUT
350
1A
  3
ACAD_MLINESTYLE
350
17
  3
ACAD_PLOTSETTINGS
350
19
  3
ACAD_PLOTSTYLENAME
350
E
  0
DICTIONARY
  5
D
102
{ACAD_REACTORS
330
C
102
}
330
C
100
AcDbDictionary
281
     1
  0
DICTIONARY
  5
1A
102
{ACAD_REACTORS
330
C
102
}
330
C
100
AcDbDictionary
281
     1
  3
Layout1
350
1E
  3
Layout2
350
26
  3
Model
350
22
  0
DICTIONARY
  5
17
102
{ACAD_REACTORS
330
C
102
}
330
C
100
AcDbDictionary
281
     1
  3
Standard
350
18
  0
DICTIONARY
  5
19
102
{ACAD_REACTORS
330
C
102
}
330
C
100
AcDbDictionary
281
     1
  0
ACDBDICTIONARYWDFLT
  5
E
102
{ACAD_REACTORS
330
C
102
}
330
C
100
AcDbDictionary
281
     1
  3
Normal
350
F
100
AcDbDictionaryWithDefault
340
F
  0
LAYOUT
  5
1E
102
{ACAD_REACTORS
330
1A
102
}
330
1A
100
AcDbPlotSettings
  1

  2
none_device
  4

  6

 40
0.0
 41
0.0
 42
0.0
 43
0.0
 44
0.0
 45
0.0
 46
0.0
 47
0.0
 48
0.0
 49
0.0
140
0.0
141
0.0
142
1.0
143
1.0
 70
   688
 72
     0
 73
     0
 74
     5
  7

 75
    16
147
1.0
148
0.0
149
0.0
100
AcDbLayout
  1
Layout1
 70
     1
 71
     1
 10
0.0
 20
0.0
 11
420.0
 21
297.0
 12
0.0
 22
0.0
 32
0.0
 14
1.0000000000E+20
 24
1.0000000000E+20
 34
1.0000000000E+20
 15
-1.0000000000E+20
 25
-1.0000000000E+20
 35
-1.0000000000E+20
146
0.0
 13
0.0
 23
0.0
 33
0.0
 16
1.0
 26
0.0
 36
0.0
 17
0.0
 27
1.0
 37
0.0
 76
     0
330
1B
  0
LAYOUT
  5
26
102
{ACAD_REACTORS
330
1A
102
}
330
1A
100
AcDbPlotSettings
  1

  2
none_device
  4

  6

 40
0.0
 41
0.0
 42
0.0
 43
0.0
 44
0.0
 45
0.0
 46
0.0
 47
0.0
 48
0.0
 49
0.0
140
0.0
141
0.0
142
1.0
143
1.0
 70
   688
 72
     0
 73
     0
 74
     5
  7

 75
    16
147
1.0
148
0.0
149
0.0
100
AcDbLayout
  1
Layout2
 70
     1
 71
     2
 10
0.0
 20
0.0
 11
0.0
 21
0.0
 12
0.0
 22
0.0
 32
0.0
 14
0.0
 24
0.0
 34
0.0
 15
0.0
 25
0.0
 35
0.0
146
0.0
 13
0.0
 23
0.0
 33
0.0
 16
1.0
 26
0.0
 36
0.0
 17
0.0
 27
1.0
 37
0.0
 76
     0
330
23
  0
LAYOUT
  5
22
102
{ACAD_REACTORS
330
1A
102
}
330
1A
100
AcDbPlotSettings
  1

  2
none_device
  4

  6

 40
0.0
 41
0.0
 42
0.0
 43
0.0
 44
0.0
 45
0.0
 46
0.0
 47
0.0
 48
0.0
 49
0.0
140
0.0
141
0.0
142
1.0
143
1.0
 70
  1712
 72
     0
 73
     0
 74
     0
  7

 75
     0
147
1.0
148
0.0
149
0.0
100
AcDbLayout
  1
Model
 70
     1
 71
     0
 10
0.0
 20
0.0
 11
297.0
 21
210.0
 12
0.0
 22
0.0
 32
0.0
 14
0.0
 24
0.0
 34
0.0
 15
297.0
 25
210.0
 35
0.0
146
0.0
 13
0.0
 23
0.0
 33
0.0
 16
1.0
 26
0.0
 36
0.0
 17
0.0
 27
1.0
 37
0.0
 76
     0
330
1F
331
29
  0
MLINESTYLE
  5
18
102
{ACAD_REACTORS
330
17
102
}
330
17
100
AcDbMlineStyle
  2
Standard
 70
     0
  3

 62
   256
 51
90.0
 52
90.0
 71
     2
 49
0.5
 62
   256
  6
BYLAYER
 49
-0.5
 62
   256
  6
BYLAYER
  0
ACDBPLACEHOLDER
  5
F
102
{ACAD_REACTORS
330
E
102
}
330
E
  0
ENDSEC
  0
EOF
